<svg width="409" height="97" viewBox="0 0 409 97" fill="none" xmlns="http://www.w3.org/2000/svg">
<path d="M117.566 49.6314C118.108 49.6314 118.552 49.5903 118.897 49.5082C119.258 49.4097 119.545 49.2865 119.759 49.1387C119.972 48.9744 120.12 48.7856 120.202 48.5721C120.285 48.3586 120.326 48.1204 120.326 47.8576C120.326 47.2992 120.063 46.8394 119.537 46.478C119.012 46.1003 118.108 45.6979 116.827 45.2709C116.269 45.0738 115.711 44.8521 115.152 44.6057C114.594 44.343 114.093 44.0227 113.649 43.645C113.206 43.2508 112.845 42.7827 112.565 42.2407C112.286 41.6823 112.147 41.009 112.147 40.2206C112.147 39.4323 112.294 38.7261 112.59 38.102C112.886 37.4614 113.304 36.9195 113.846 36.476C114.388 36.0326 115.045 35.6959 115.817 35.466C116.589 35.2196 117.46 35.0964 118.429 35.0964C119.578 35.0964 120.572 35.2196 121.41 35.466C122.247 35.7123 122.937 35.9833 123.479 36.2789L122.37 39.3091C121.894 39.0628 121.36 38.8492 120.769 38.6686C120.194 38.4715 119.496 38.373 118.675 38.373C117.755 38.373 117.09 38.5043 116.68 38.7671C116.285 39.0135 116.088 39.3994 116.088 39.925C116.088 40.237 116.162 40.4998 116.31 40.7133C116.458 40.9268 116.663 41.1239 116.926 41.3046C117.205 41.4688 117.517 41.6248 117.862 41.7727C118.223 41.9041 118.618 42.0437 119.045 42.1915C119.931 42.5199 120.703 42.8484 121.36 43.1769C122.017 43.4889 122.559 43.8585 122.986 44.2855C123.43 44.7125 123.758 45.2134 123.972 45.7883C124.185 46.3631 124.292 47.0611 124.292 47.8823C124.292 49.4754 123.734 50.7154 122.617 51.6022C121.5 52.4727 119.816 52.9079 117.566 52.9079C116.811 52.9079 116.129 52.8586 115.522 52.7601C114.914 52.678 114.372 52.5712 113.896 52.4398C113.436 52.3085 113.033 52.1689 112.689 52.021C112.36 51.8732 112.081 51.7336 111.851 51.6022L112.935 48.5474C113.444 48.8266 114.068 49.0812 114.807 49.3111C115.563 49.5246 116.482 49.6314 117.566 49.6314ZM139.123 46.0592C139.123 47.0775 138.975 48.0137 138.68 48.8677C138.384 49.7053 137.957 50.4279 137.399 51.0356C136.84 51.6269 136.167 52.0867 135.379 52.4152C134.607 52.7437 133.736 52.9079 132.767 52.9079C131.815 52.9079 130.944 52.7437 130.156 52.4152C129.384 52.0867 128.719 51.6269 128.16 51.0356C127.602 50.4279 127.167 49.7053 126.855 48.8677C126.543 48.0137 126.387 47.0775 126.387 46.0592C126.387 45.041 126.543 44.113 126.855 43.2754C127.183 42.4378 127.627 41.7234 128.185 41.1321C128.76 40.5409 129.433 40.081 130.205 39.7525C130.994 39.4241 131.848 39.2598 132.767 39.2598C133.703 39.2598 134.557 39.4241 135.329 39.7525C136.118 40.081 136.791 40.5409 137.349 41.1321C137.908 41.7234 138.343 42.4378 138.655 43.2754C138.967 44.113 139.123 45.041 139.123 46.0592ZM135.379 46.0592C135.379 44.926 135.149 44.0391 134.689 43.3986C134.245 42.7417 133.605 42.4132 132.767 42.4132C131.93 42.4132 131.281 42.7417 130.821 43.3986C130.361 44.0391 130.131 44.926 130.131 46.0592C130.131 47.1925 130.361 48.0958 130.821 48.7691C131.281 49.4261 131.93 49.7546 132.767 49.7546C133.605 49.7546 134.245 49.4261 134.689 48.7691C135.149 48.0958 135.379 47.1925 135.379 46.0592ZM147.14 52.8094C146.073 52.793 145.202 52.678 144.529 52.4645C143.872 52.251 143.346 51.9553 142.952 51.5776C142.574 51.1834 142.312 50.7154 142.164 50.1734C142.032 49.615 141.967 48.9909 141.967 48.3011V34.0371L145.637 33.4459V47.562C145.637 47.8905 145.662 48.1861 145.711 48.4489C145.761 48.7117 145.851 48.9334 145.982 49.114C146.13 49.2947 146.335 49.4425 146.598 49.5575C146.861 49.6725 147.214 49.7464 147.658 49.7792L147.14 52.8094ZM160.823 52.1196C160.199 52.3002 159.394 52.4645 158.409 52.6123C157.423 52.7765 156.389 52.8586 155.305 52.8586C154.204 52.8586 153.284 52.7108 152.545 52.4152C151.823 52.1196 151.248 51.709 150.821 51.1834C150.394 50.6414 150.09 50.0009 149.909 49.2619C149.729 48.5228 149.638 47.7098 149.638 46.8229V39.6047H153.309V46.3795C153.309 47.562 153.465 48.416 153.777 48.9416C154.089 49.4672 154.672 49.7299 155.526 49.7299C155.789 49.7299 156.068 49.7217 156.364 49.7053C156.66 49.6725 156.922 49.6396 157.152 49.6068V39.6047H160.823V52.1196ZM164.145 36.3775L167.816 35.7862V39.6047H172.226V42.6595H167.816V47.2171C167.816 47.989 167.948 48.6049 168.21 49.0648C168.49 49.5246 169.04 49.7546 169.861 49.7546C170.255 49.7546 170.657 49.7217 171.068 49.656C171.495 49.5739 171.881 49.4672 172.226 49.3358L172.743 52.1935C172.3 52.3741 171.807 52.5302 171.265 52.6616C170.723 52.793 170.058 52.8586 169.27 52.8586C168.268 52.8586 167.438 52.7273 166.781 52.4645C166.124 52.1853 165.599 51.8075 165.205 51.3312C164.811 50.8385 164.531 50.2473 164.367 49.5575C164.219 48.8677 164.145 48.104 164.145 47.2664V36.3775ZM178.886 52.563H175.215V39.6047H178.886V52.563ZM179.231 35.8601C179.231 36.5335 179.009 37.0673 178.565 37.4614C178.138 37.8392 177.629 38.0281 177.038 38.0281C176.447 38.0281 175.929 37.8392 175.486 37.4614C175.059 37.0673 174.846 36.5335 174.846 35.8601C174.846 35.1868 175.059 34.6612 175.486 34.2835C175.929 33.8893 176.447 33.6922 177.038 33.6922C177.629 33.6922 178.138 33.8893 178.565 34.2835C179.009 34.6612 179.231 35.1868 179.231 35.8601ZM194.457 46.0592C194.457 47.0775 194.309 48.0137 194.014 48.8677C193.718 49.7053 193.291 50.4279 192.732 51.0356C192.174 51.6269 191.501 52.0867 190.712 52.4152C189.94 52.7437 189.07 52.9079 188.101 52.9079C187.148 52.9079 186.278 52.7437 185.49 52.4152C184.718 52.0867 184.053 51.6269 183.494 51.0356C182.936 50.4279 182.501 49.7053 182.188 48.8677C181.876 48.0137 181.72 47.0775 181.72 46.0592C181.72 45.041 181.876 44.113 182.188 43.2754C182.517 42.4378 182.96 41.7234 183.519 41.1321C184.094 40.5409 184.767 40.081 185.539 39.7525C186.327 39.4241 187.181 39.2598 188.101 39.2598C189.037 39.2598 189.891 39.4241 190.663 39.7525C191.451 40.081 192.125 40.5409 192.683 41.1321C193.242 41.7234 193.677 42.4378 193.989 43.2754C194.301 44.113 194.457 45.041 194.457 46.0592ZM190.712 46.0592C190.712 44.926 190.482 44.0391 190.023 43.3986C189.579 42.7417 188.939 42.4132 188.101 42.4132C187.263 42.4132 186.615 42.7417 186.155 43.3986C185.695 44.0391 185.465 44.926 185.465 46.0592C185.465 47.1925 185.695 48.0958 186.155 48.7691C186.615 49.4261 187.263 49.7546 188.101 49.7546C188.939 49.7546 189.579 49.4261 190.023 48.7691C190.482 48.0958 190.712 47.1925 190.712 46.0592ZM197.3 40.0482C197.925 39.8675 198.729 39.7033 199.715 39.5555C200.7 39.3912 201.735 39.3091 202.819 39.3091C203.919 39.3091 204.831 39.4569 205.553 39.7525C206.292 40.0318 206.875 40.4341 207.302 40.9597C207.729 41.4852 208.033 42.1093 208.214 42.832C208.395 43.5546 208.485 44.3594 208.485 45.2463V52.563H204.814V45.6897C204.814 44.5072 204.658 43.6696 204.346 43.1769C204.034 42.6842 203.451 42.4378 202.597 42.4378C202.334 42.4378 202.055 42.4542 201.759 42.4871C201.464 42.5035 201.201 42.5282 200.971 42.561V52.563H197.3V40.0482ZM215.527 49.927C216.201 49.927 216.677 49.8613 216.956 49.7299C217.235 49.5985 217.375 49.344 217.375 48.9662C217.375 48.6706 217.194 48.416 216.833 48.2025C216.472 47.9726 215.922 47.718 215.183 47.4388C214.608 47.2253 214.082 47.0036 213.606 46.7737C213.146 46.5437 212.752 46.2727 212.423 45.9607C212.095 45.6322 211.84 45.2463 211.66 44.8028C211.479 44.3594 211.389 43.8256 211.389 43.2015C211.389 41.9862 211.84 41.0254 212.744 40.3192C213.647 39.6129 214.887 39.2598 216.464 39.2598C217.252 39.2598 218.007 39.3337 218.73 39.4816C219.453 39.6129 220.028 39.7608 220.455 39.925L219.814 42.7827C219.387 42.6349 218.919 42.5035 218.41 42.3885C217.917 42.2736 217.359 42.2161 216.735 42.2161C215.585 42.2161 215.01 42.5364 215.01 43.1769C215.01 43.3247 215.035 43.4561 215.084 43.5711C215.133 43.686 215.232 43.801 215.38 43.916C215.527 44.0145 215.725 44.1295 215.971 44.2608C216.234 44.3758 216.562 44.5072 216.956 44.655C217.761 44.9506 218.426 45.2463 218.952 45.5419C219.477 45.8211 219.888 46.1331 220.184 46.478C220.496 46.8065 220.709 47.1761 220.824 47.5866C220.955 47.9972 221.021 48.4735 221.021 49.0155C221.021 50.2966 220.537 51.2655 219.568 51.9225C218.615 52.5794 217.26 52.9079 215.503 52.9079C214.353 52.9079 213.392 52.8094 212.62 52.6123C211.865 52.4152 211.339 52.251 211.044 52.1196L211.66 49.1387C212.284 49.385 212.924 49.5821 213.581 49.7299C214.238 49.8613 214.887 49.927 215.527 49.927ZM234.585 49.6314C235.127 49.6314 235.571 49.5903 235.915 49.5082C236.277 49.4097 236.564 49.2865 236.778 49.1387C236.991 48.9744 237.139 48.7856 237.221 48.5721C237.303 48.3586 237.344 48.1204 237.344 47.8576C237.344 47.2992 237.082 46.8394 236.556 46.478C236.03 46.1003 235.127 45.6979 233.846 45.2709C233.288 45.0738 232.729 44.8521 232.171 44.6057C231.612 44.343 231.112 44.0227 230.668 43.645C230.225 43.2508 229.863 42.7827 229.584 42.2407C229.305 41.6823 229.165 41.009 229.165 40.2206C229.165 39.4323 229.313 38.7261 229.609 38.102C229.904 37.4614 230.323 36.9195 230.865 36.476C231.407 36.0326 232.064 35.6959 232.836 35.466C233.608 35.2196 234.478 35.0964 235.447 35.0964C236.597 35.0964 237.591 35.2196 238.428 35.466C239.266 35.7123 239.956 35.9833 240.498 36.2789L239.389 39.3091C238.913 39.0628 238.379 38.8492 237.788 38.6686C237.213 38.4715 236.515 38.373 235.694 38.373C234.774 38.373 234.109 38.5043 233.698 38.7671C233.304 39.0135 233.107 39.3994 233.107 39.925C233.107 40.237 233.181 40.4998 233.329 40.7133C233.477 40.9268 233.682 41.1239 233.945 41.3046C234.224 41.4688 234.536 41.6248 234.881 41.7727C235.242 41.9041 235.636 42.0437 236.063 42.1915C236.95 42.5199 237.722 42.8484 238.379 43.1769C239.036 43.4889 239.578 43.8585 240.005 44.2855C240.448 44.7125 240.777 45.2134 240.99 45.7883C241.204 46.3631 241.311 47.0611 241.311 47.8823C241.311 49.4754 240.752 50.7154 239.635 51.6022C238.519 52.4727 236.835 52.9079 234.585 52.9079C233.83 52.9079 233.148 52.8586 232.54 52.7601C231.933 52.678 231.391 52.5712 230.914 52.4398C230.455 52.3085 230.052 52.1689 229.707 52.021C229.379 51.8732 229.1 51.7336 228.87 51.6022L229.954 48.5474C230.463 48.8266 231.087 49.0812 231.826 49.3111C232.581 49.5246 233.501 49.6314 234.585 49.6314ZM243.405 46.1824C243.405 45.0328 243.578 44.0309 243.923 43.1769C244.284 42.3064 244.752 41.5838 245.327 41.009C245.902 40.4341 246.559 39.9989 247.298 39.7033C248.053 39.4077 248.825 39.2598 249.614 39.2598C251.453 39.2598 252.907 39.8265 253.974 40.9597C255.042 42.0765 255.575 43.7271 255.575 45.9114C255.575 46.1249 255.567 46.3631 255.551 46.6259C255.534 46.8722 255.518 47.0939 255.501 47.291H247.175C247.257 48.0465 247.61 48.646 248.234 49.0894C248.858 49.5328 249.696 49.7546 250.747 49.7546C251.42 49.7546 252.077 49.6971 252.718 49.5821C253.375 49.4507 253.908 49.2947 254.319 49.114L254.812 52.0949C254.615 52.1935 254.352 52.292 254.023 52.3906C253.695 52.4891 253.325 52.5712 252.915 52.6369C252.521 52.719 252.094 52.7847 251.634 52.834C251.174 52.8833 250.714 52.9079 250.254 52.9079C249.088 52.9079 248.07 52.7355 247.199 52.3906C246.345 52.0457 245.631 51.5776 245.056 50.9863C244.498 50.3787 244.079 49.6642 243.8 48.8431C243.537 48.0219 243.405 47.135 243.405 46.1824ZM252.028 44.7782C252.011 44.4661 251.954 44.1623 251.855 43.8667C251.773 43.5711 251.634 43.3083 251.437 43.0783C251.256 42.8484 251.018 42.6595 250.722 42.5117C250.443 42.3639 250.09 42.29 249.663 42.29C249.252 42.29 248.899 42.3639 248.604 42.5117C248.308 42.6431 248.062 42.8238 247.864 43.0537C247.667 43.2836 247.511 43.5546 247.396 43.8667C247.298 44.1623 247.224 44.4661 247.175 44.7782H252.028ZM257.792 46.1824C257.792 45.0328 257.965 44.0309 258.31 43.1769C258.671 42.3064 259.139 41.5838 259.714 41.009C260.289 40.4341 260.946 39.9989 261.685 39.7033C262.44 39.4077 263.212 39.2598 264 39.2598C265.84 39.2598 267.293 39.8265 268.361 40.9597C269.428 42.0765 269.962 43.7271 269.962 45.9114C269.962 46.1249 269.954 46.3631 269.937 46.6259C269.921 46.8722 269.905 47.0939 269.888 47.291H261.561C261.644 48.0465 261.997 48.646 262.621 49.0894C263.245 49.5328 264.082 49.7546 265.134 49.7546C265.807 49.7546 266.464 49.6971 267.104 49.5821C267.761 49.4507 268.295 49.2947 268.706 49.114L269.198 52.0949C269.001 52.1935 268.739 52.292 268.41 52.3906C268.082 52.4891 267.712 52.5712 267.301 52.6369C266.907 52.719 266.48 52.7847 266.02 52.834C265.561 52.8833 265.101 52.9079 264.641 52.9079C263.475 52.9079 262.456 52.7355 261.586 52.3906C260.732 52.0457 260.018 51.5776 259.443 50.9863C258.884 50.3787 258.466 49.6642 258.186 48.8431C257.924 48.0219 257.792 47.135 257.792 46.1824ZM266.415 44.7782C266.398 44.4661 266.341 44.1623 266.242 43.8667C266.16 43.5711 266.02 43.3083 265.823 43.0783C265.643 42.8484 265.405 42.6595 265.109 42.5117C264.83 42.3639 264.477 42.29 264.05 42.29C263.639 42.29 263.286 42.3639 262.99 42.5117C262.695 42.6431 262.448 42.8238 262.251 43.0537C262.054 43.2836 261.898 43.5546 261.783 43.8667C261.685 44.1623 261.611 44.4661 261.561 44.7782H266.415ZM275.924 45.9853C275.924 47.1186 276.178 48.0301 276.687 48.7199C277.196 49.4097 277.952 49.7546 278.954 49.7546C279.282 49.7546 279.586 49.7464 279.865 49.7299C280.144 49.6971 280.374 49.6642 280.555 49.6314V42.9552C280.325 42.8074 280.021 42.6842 279.643 42.5856C279.282 42.4871 278.913 42.4378 278.535 42.4378C276.794 42.4378 275.924 43.6203 275.924 45.9853ZM284.226 52.1442C283.897 52.2428 283.519 52.3413 283.092 52.4398C282.665 52.522 282.214 52.5959 281.738 52.6616C281.278 52.7273 280.801 52.7765 280.309 52.8094C279.832 52.8586 279.372 52.8833 278.929 52.8833C277.862 52.8833 276.909 52.7273 276.071 52.4152C275.234 52.1032 274.528 51.6597 273.953 51.0849C273.378 50.4936 272.934 49.7874 272.622 48.9662C272.327 48.1286 272.179 47.1925 272.179 46.1578C272.179 45.1067 272.31 44.1623 272.573 43.3247C272.836 42.4707 273.214 41.748 273.706 41.1568C274.199 40.5655 274.799 40.1139 275.505 39.8018C276.227 39.4898 277.049 39.3337 277.968 39.3337C278.477 39.3337 278.929 39.383 279.323 39.4816C279.734 39.5801 280.144 39.7197 280.555 39.9004V34.0371L284.226 33.4459V52.1442ZM301.612 52.9079C298.837 52.9079 296.718 52.136 295.256 50.5922C293.811 49.0484 293.088 46.8558 293.088 44.0145C293.088 42.6021 293.31 41.3456 293.753 40.2453C294.197 39.1284 294.805 38.1923 295.577 37.4368C296.348 36.6649 297.268 36.0819 298.336 35.6877C299.403 35.2935 300.561 35.0964 301.809 35.0964C302.532 35.0964 303.189 35.1539 303.78 35.2689C304.371 35.3674 304.889 35.4906 305.332 35.6384C305.776 35.7698 306.145 35.9094 306.441 36.0572C306.736 36.205 306.95 36.32 307.081 36.4021L305.973 39.5062C305.447 39.227 304.831 38.9888 304.125 38.7918C303.435 38.5947 302.647 38.4961 301.76 38.4961C301.169 38.4961 300.586 38.5947 300.011 38.7918C299.453 38.9888 298.952 39.3091 298.508 39.7525C298.081 40.1796 297.736 40.738 297.473 41.4278C297.211 42.1176 297.079 42.9552 297.079 43.9406C297.079 44.7289 297.161 45.468 297.326 46.1578C297.506 46.8312 297.786 47.4142 298.163 47.9069C298.557 48.3996 299.067 48.7938 299.691 49.0894C300.315 49.3686 301.07 49.5082 301.957 49.5082C302.516 49.5082 303.016 49.4754 303.46 49.4097C303.903 49.344 304.297 49.2701 304.642 49.188C304.987 49.0894 305.291 48.9827 305.554 48.8677C305.817 48.7527 306.055 48.646 306.268 48.5474L307.328 51.6269C306.786 51.9553 306.022 52.251 305.037 52.5137C304.051 52.7765 302.91 52.9079 301.612 52.9079ZM309.556 52.563V34.0371L313.226 33.4459V39.654C313.473 39.5719 313.785 39.498 314.162 39.4323C314.557 39.3502 314.934 39.3091 315.296 39.3091C316.347 39.3091 317.217 39.4569 317.907 39.7525C318.613 40.0318 319.172 40.4341 319.582 40.9597C320.009 41.4852 320.305 42.1093 320.469 42.832C320.65 43.5546 320.74 44.3594 320.74 45.2463V52.563H317.069V45.6897C317.069 44.5072 316.913 43.6696 316.601 43.1769C316.306 42.6842 315.747 42.4378 314.926 42.4378C314.598 42.4378 314.286 42.4707 313.99 42.5364C313.711 42.5856 313.456 42.6431 313.226 42.7088V52.563H309.556ZM329.014 50.0009C329.376 50.0009 329.721 49.9927 330.049 49.9763C330.378 49.9599 330.64 49.9352 330.837 49.9024V47.1186C330.69 47.0857 330.468 47.0529 330.172 47.02C329.877 46.9872 329.606 46.9708 329.359 46.9708C329.014 46.9708 328.686 46.9954 328.374 47.0447C328.078 47.0775 327.815 47.1514 327.586 47.2664C327.356 47.3813 327.175 47.5374 327.044 47.7345C326.912 47.9315 326.846 48.1779 326.846 48.4735C326.846 49.0484 327.035 49.4507 327.413 49.6807C327.807 49.8942 328.341 50.0009 329.014 50.0009ZM328.719 39.2598C329.803 39.2598 330.706 39.383 331.429 39.6294C332.151 39.8757 332.726 40.2288 333.153 40.6887C333.597 41.1486 333.909 41.707 334.089 42.3639C334.27 43.0209 334.36 43.7517 334.36 44.5565V52.1935C333.835 52.3085 333.104 52.4398 332.168 52.5877C331.232 52.7519 330.098 52.834 328.768 52.834C327.93 52.834 327.167 52.7601 326.477 52.6123C325.804 52.4645 325.221 52.2263 324.728 51.8979C324.235 51.553 323.857 51.1095 323.595 50.5675C323.332 50.0256 323.2 49.3604 323.2 48.5721C323.2 47.8166 323.348 47.1761 323.644 46.6505C323.956 46.1249 324.367 45.7061 324.876 45.3941C325.385 45.082 325.968 44.8603 326.625 44.7289C327.282 44.5811 327.963 44.5072 328.67 44.5072C329.146 44.5072 329.565 44.5318 329.926 44.5811C330.304 44.614 330.608 44.6632 330.837 44.7289V44.384C330.837 43.7599 330.649 43.259 330.271 42.8813C329.893 42.5035 329.236 42.3146 328.3 42.3146C327.676 42.3146 327.06 42.3639 326.452 42.4625C325.845 42.5446 325.319 42.6678 324.876 42.832L324.408 39.8757C324.621 39.81 324.884 39.7443 325.196 39.6786C325.524 39.5965 325.877 39.5308 326.255 39.4816C326.633 39.4159 327.027 39.3666 327.438 39.3337C327.865 39.2845 328.292 39.2598 328.719 39.2598ZM342.853 52.8094C341.785 52.793 340.915 52.678 340.242 52.4645C339.585 52.251 339.059 51.9553 338.665 51.5776C338.287 51.1834 338.024 50.7154 337.877 50.1734C337.745 49.615 337.68 48.9909 337.68 48.3011V34.0371L341.35 33.4459V47.562C341.35 47.8905 341.375 48.1861 341.424 48.4489C341.473 48.7117 341.564 48.9334 341.695 49.114C341.843 49.2947 342.048 49.4425 342.311 49.5575C342.574 49.6725 342.927 49.7464 343.37 49.7792L342.853 52.8094ZM350.648 52.8094C349.58 52.793 348.71 52.678 348.037 52.4645C347.38 52.251 346.854 51.9553 346.46 51.5776C346.082 51.1834 345.819 50.7154 345.671 50.1734C345.54 49.615 345.474 48.9909 345.474 48.3011V34.0371L349.145 33.4459V47.562C349.145 47.8905 349.17 48.1861 349.219 48.4489C349.268 48.7117 349.359 48.9334 349.49 49.114C349.638 49.2947 349.843 49.4425 350.106 49.5575C350.369 49.6725 350.722 49.7464 351.165 49.7792L350.648 52.8094ZM352.653 46.1824C352.653 45.0328 352.826 44.0309 353.171 43.1769C353.532 42.3064 354 41.5838 354.575 41.009C355.15 40.4341 355.807 39.9989 356.546 39.7033C357.301 39.4077 358.073 39.2598 358.862 39.2598C360.701 39.2598 362.154 39.8265 363.222 40.9597C364.29 42.0765 364.823 43.7271 364.823 45.9114C364.823 46.1249 364.815 46.3631 364.799 46.6259C364.782 46.8722 364.766 47.0939 364.749 47.291H356.423C356.505 48.0465 356.858 48.646 357.482 49.0894C358.106 49.5328 358.944 49.7546 359.995 49.7546C360.668 49.7546 361.325 49.6971 361.966 49.5821C362.623 49.4507 363.156 49.2947 363.567 49.114L364.06 52.0949C363.863 52.1935 363.6 52.292 363.271 52.3906C362.943 52.4891 362.573 52.5712 362.163 52.6369C361.768 52.719 361.341 52.7847 360.882 52.834C360.422 52.8833 359.962 52.9079 359.502 52.9079C358.336 52.9079 357.318 52.7355 356.447 52.3906C355.593 52.0457 354.879 51.5776 354.304 50.9863C353.746 50.3787 353.327 49.6642 353.048 48.8431C352.785 48.0219 352.653 47.135 352.653 46.1824ZM361.276 44.7782C361.259 44.4661 361.202 44.1623 361.103 43.8667C361.021 43.5711 360.882 43.3083 360.685 43.0783C360.504 42.8484 360.266 42.6595 359.97 42.5117C359.691 42.3639 359.338 42.29 358.911 42.29C358.5 42.29 358.147 42.3639 357.851 42.5117C357.556 42.6431 357.309 42.8238 357.112 43.0537C356.915 43.2836 356.759 43.5546 356.644 43.8667C356.546 44.1623 356.472 44.4661 356.423 44.7782H361.276ZM367.656 40.0482C368.28 39.8675 369.085 39.7033 370.07 39.5555C371.056 39.3912 372.09 39.3091 373.174 39.3091C374.275 39.3091 375.186 39.4569 375.909 39.7525C376.648 40.0318 377.231 40.4341 377.658 40.9597C378.085 41.4852 378.389 42.1093 378.57 42.832C378.75 43.5546 378.841 44.3594 378.841 45.2463V52.563H375.17V45.6897C375.17 44.5072 375.014 43.6696 374.702 43.1769C374.39 42.6842 373.807 42.4378 372.953 42.4378C372.69 42.4378 372.411 42.4542 372.115 42.4871C371.819 42.5035 371.557 42.5282 371.327 42.561V52.563H367.656V40.0482ZM385.292 45.6651C385.292 47.718 386.121 48.7445 387.78 48.7445C388.158 48.7445 388.511 48.6952 388.839 48.5967C389.168 48.4982 389.447 48.3832 389.677 48.2518V42.3885C389.496 42.3557 389.283 42.3311 389.036 42.3146C388.79 42.2818 388.503 42.2654 388.174 42.2654C387.205 42.2654 386.482 42.5856 386.006 43.2262C385.53 43.8667 385.292 44.6797 385.292 45.6651ZM393.348 50.9371C393.348 53.0557 392.806 54.6242 391.722 55.6425C390.654 56.6772 388.995 57.1945 386.745 57.1945C385.957 57.1945 385.169 57.1206 384.38 56.9728C383.592 56.8414 382.861 56.6607 382.188 56.4308L382.828 53.3514C383.403 53.5813 384.003 53.7619 384.627 53.8933C385.267 54.0247 385.99 54.0904 386.795 54.0904C387.846 54.0904 388.585 53.8605 389.012 53.4006C389.455 52.9408 389.677 52.3495 389.677 51.6269V51.1588C389.283 51.3395 388.872 51.4791 388.445 51.5776C388.035 51.6597 387.583 51.7008 387.09 51.7008C385.3 51.7008 383.929 51.1752 382.976 50.1241C382.023 49.0566 381.547 47.5702 381.547 45.6651C381.547 44.7125 381.695 43.8503 381.991 43.0783C382.286 42.29 382.713 41.6166 383.272 41.0582C383.846 40.4998 384.544 40.0728 385.366 39.7772C386.187 39.4651 387.115 39.3091 388.149 39.3091C388.593 39.3091 389.045 39.3337 389.504 39.383C389.981 39.4159 390.449 39.4651 390.909 39.5308C391.369 39.5965 391.804 39.6786 392.214 39.7772C392.641 39.8593 393.019 39.9496 393.348 40.0482V50.9371ZM396.174 46.1824C396.174 45.0328 396.347 44.0309 396.692 43.1769C397.053 42.3064 397.521 41.5838 398.096 41.009C398.671 40.4341 399.328 39.9989 400.067 39.7033C400.822 39.4077 401.594 39.2598 402.383 39.2598C404.222 39.2598 405.676 39.8265 406.743 40.9597C407.811 42.0765 408.344 43.7271 408.344 45.9114C408.344 46.1249 408.336 46.3631 408.32 46.6259C408.303 46.8722 408.287 47.0939 408.271 47.291H399.944C400.026 48.0465 400.379 48.646 401.003 49.0894C401.627 49.5328 402.465 49.7546 403.516 49.7546C404.189 49.7546 404.846 49.6971 405.487 49.5821C406.144 49.4507 406.677 49.2947 407.088 49.114L407.581 52.0949C407.384 52.1935 407.121 52.292 406.792 52.3906C406.464 52.4891 406.094 52.5712 405.684 52.6369C405.29 52.719 404.863 52.7847 404.403 52.834C403.943 52.8833 403.483 52.9079 403.023 52.9079C401.857 52.9079 400.839 52.7355 399.968 52.3906C399.114 52.0457 398.4 51.5776 397.825 50.9863C397.267 50.3787 396.848 49.6642 396.569 48.8431C396.306 48.0219 396.174 47.135 396.174 46.1824ZM404.797 44.7782C404.78 44.4661 404.723 44.1623 404.624 43.8667C404.542 43.5711 404.403 43.3083 404.206 43.0783C404.025 42.8484 403.787 42.6595 403.491 42.5117C403.212 42.3639 402.859 42.29 402.432 42.29C402.021 42.29 401.668 42.3639 401.373 42.5117C401.077 42.6431 400.831 42.8238 400.634 43.0537C400.436 43.2836 400.28 43.5546 400.165 43.8667C400.067 44.1623 399.993 44.4661 399.944 44.7782H404.797Z" fill="#4D6F80"/>
<circle cx="48.4384" cy="48.4384" r="48.4384" fill="#4D6F80"/>
<path d="M13.9205 38.531C13.9205 38.531 21.6682 39.2971 25.5886 44.0973C25.5886 44.0973 29.7345 38.5361 37.1827 38.6515C39.0018 36.4562 40.1598 33.7894 40.5221 30.9615C40.8844 28.1336 40.436 25.261 39.2291 22.6781C38.0221 20.0952 36.1063 17.9082 33.7048 16.3718C31.3032 14.8354 28.5146 14.0128 25.6636 13.9997C22.8126 13.9866 20.0166 14.7836 17.601 16.2979C15.1854 17.8122 13.2496 19.9815 12.019 22.5532C10.7885 25.125 10.3137 27.9934 10.65 30.8245C10.9863 33.6556 12.1199 36.3329 13.9187 38.5447L13.9205 38.531Z" fill="#92E3A9"/>
<path opacity="0.5" d="M13.9205 38.531C13.9205 38.531 21.6682 39.2971 25.5886 44.0973C25.5886 44.0973 29.7345 38.5361 37.1827 38.6515C39.0018 36.4562 40.1598 33.7894 40.5221 30.9615C40.8844 28.1336 40.436 25.261 39.2291 22.6781C38.0221 20.0952 36.1063 17.9082 33.7048 16.3718C31.3032 14.8354 28.5146 14.0128 25.6636 13.9997C22.8126 13.9866 20.0166 14.7836 17.601 16.2979C15.1854 17.8122 13.2496 19.9815 12.019 22.5532C10.7885 25.125 10.3137 27.9934 10.65 30.8245C10.9863 33.6556 12.1199 36.3329 13.9187 38.5447L13.9205 38.531Z" fill="white"/>
<path d="M25.332 15.057L25.0703 74.2568H26.3788L25.332 15.057Z" fill="#263238"/>
<path d="M25.7248 42.6338C25.7248 42.6338 28.3384 37.9301 33.0439 36.4924C33.0439 36.4924 28.0767 37.6684 25.594 41.7196L25.7248 42.6338Z" fill="#263238"/>
<path d="M25.7248 29.3043C25.7248 29.3043 28.3384 24.5988 33.0439 23.1612C33.0439 23.1612 28.0767 24.3371 25.594 28.3883L25.7248 29.3043Z" fill="#263238"/>
<path d="M25.7248 35.969C25.7248 35.969 28.3384 31.2636 33.0439 29.8259C33.0439 29.8259 28.0767 31.0019 25.594 35.0548L25.7248 35.969Z" fill="#263238"/>
<path d="M25.3374 32.7012C25.3374 32.7012 22.8151 27.9957 18.2783 26.5581C18.2783 26.5581 23.0716 27.7358 25.4665 31.787L25.3374 32.7012Z" fill="#263238"/>
<path d="M25.3374 39.2369C25.3374 39.2369 22.8151 34.5314 18.2783 33.0938C18.2783 33.0938 23.0716 34.2697 25.4665 38.3209L25.3374 39.2369Z" fill="#263238"/>
<path d="M63.7163 43.598C63.7163 43.598 70.3622 44.2557 73.7299 48.3758C73.7299 48.3758 77.287 43.6032 83.678 43.7013C85.2384 41.8176 86.2317 39.5294 86.5422 37.1032C86.8527 34.6769 86.4677 32.2123 85.432 29.9963C84.3963 27.7803 82.7525 25.9041 80.6919 24.586C78.6314 23.268 76.2388 22.5622 73.7928 22.5511C71.3467 22.5399 68.9478 23.2237 66.8753 24.5229C64.8028 25.8221 63.1419 27.6832 62.0859 29.8896C61.03 32.096 60.6225 34.557 60.9108 36.986C61.1992 39.415 62.1715 41.7122 63.7146 43.6101L63.7163 43.598Z" fill="#92E3A9"/>
<path opacity="0.5" d="M63.7163 43.598C63.7163 43.598 70.3622 44.2557 73.7299 48.3758C73.7299 48.3758 77.287 43.6032 83.678 43.7013C85.2384 41.8176 86.2317 39.5294 86.5422 37.1032C86.8527 34.6769 86.4677 32.2123 85.432 29.9963C84.3963 27.7803 82.7525 25.9041 80.6919 24.586C78.6314 23.268 76.2388 22.5622 73.7928 22.5511C71.3467 22.5399 68.9478 23.2237 66.8753 24.5229C64.8028 25.8221 63.1419 27.6832 62.0859 29.8896C61.03 32.096 60.6225 34.557 60.9108 36.986C61.1992 39.415 62.1715 41.7122 63.7146 43.6101L63.7163 43.598Z" fill="white"/>
<path d="M73.5097 23.4538L73.2859 74.2568H74.4067L73.5097 23.4538Z" fill="#263238"/>
<path d="M73.8453 47.119C73.8453 47.119 76.0835 43.0815 80.1262 41.8488C80.1262 41.8488 75.8649 42.8577 73.7334 46.3252L73.8453 47.119Z" fill="#263238"/>
<path d="M73.8453 35.6798C73.8453 35.6798 76.0835 31.6424 80.1262 30.4079C80.1262 30.4079 75.8649 31.4168 73.7334 34.8947L73.8453 35.6798Z" fill="#263238"/>
<path d="M73.8453 41.3994C73.8453 41.3994 76.0835 37.3619 80.1262 36.1275C80.1262 36.1275 75.8649 37.1381 73.7334 40.6143L73.8453 41.3994Z" fill="#263238"/>
<path d="M73.5129 38.5964C73.5129 38.5964 71.3487 34.5572 67.4524 33.3245C67.4524 33.3245 71.5656 34.3334 73.6213 37.8113L73.5129 38.5964Z" fill="#263238"/>
<path d="M73.5129 44.2041C73.5129 44.2041 71.3487 40.1666 67.4524 38.9321C67.4524 38.9321 71.5656 39.9411 73.6213 43.4189L73.5129 44.2041Z" fill="#263238"/>
<path d="M48.1931 74.4686C48.2172 73.9297 48.1449 72.9087 47.5595 71.3695C46.6419 68.9591 45.0355 73.7799 45.0355 73.7799C45.0355 73.7799 45.0355 73.2066 43.3138 71.3695C41.592 69.5324 40.0993 72.7469 40.0993 72.7469C40.0993 72.7469 40.9033 65.0576 38.9509 65.631C36.9985 66.2043 37.2292 72.7469 37.2292 72.7469C37.2292 72.7469 35.8518 67.926 34.0164 67.926C32.1811 67.926 31.7197 71.3695 31.7197 71.3695C31.7197 71.3695 31.2617 65.2866 29.4246 65.1713C27.5875 65.0559 25.5283 70.2228 25.5283 70.2228C25.5283 70.2228 26.1034 63.3359 24.2663 62.9916C22.4292 62.6472 21.7405 65.5156 21.7405 65.5156C21.7405 65.5156 20.1342 55.9893 17.0351 57.1377C13.936 58.2861 16.5754 68.8454 16.5754 68.8454C16.5754 68.8454 13.4763 61.4988 10.9453 63.2205C8.65543 64.7873 11.5703 72.9896 12.1213 74.4686H48.1931Z" fill="#92E3A9"/>
<path d="M11.1745 74.6993C11.1745 74.6993 9.79711 70.3364 10.4858 69.6477C11.1745 68.959 14.1651 71.9445 14.1651 71.9445C14.1651 71.9445 11.9854 64.5979 15.4289 63.6802C18.8723 62.7625 19.4388 70.7961 19.4388 70.7961C19.4388 70.7961 21.9645 67.1237 22.5379 68.5011C22.8866 69.3394 23.0831 70.2332 23.1181 71.1405C23.1181 71.1405 24.3818 61.1545 27.2502 61.6142C30.1186 62.0739 27.4809 71.9445 27.4809 71.9445C27.4809 71.9445 29.0873 68.5011 30.9244 68.8454C32.7615 69.1897 33.4484 71.3694 33.4484 71.3694C33.4484 71.3694 34.2525 69.4187 34.8258 69.4187C35.3992 69.4187 36.0896 72.8622 36.0896 72.8622C36.0896 72.8622 36.7783 67.5817 38.0403 67.8124C39.3023 68.0431 41.9366 72.5178 41.9366 72.5178C41.9366 72.5178 41.4769 69.9921 42.8542 69.8784C44.2316 69.7648 45.0357 73.7799 45.0357 73.7799C45.0357 73.7799 46.871 69.9921 48.0194 70.6808C49.1678 71.3694 48.5996 75.0436 48.5996 75.0436" stroke="#263238" stroke-width="0.172173" stroke-linecap="round" stroke-linejoin="round"/>
<path d="M17.488 74.6993L16.3396 69.5341" stroke="#263238" stroke-width="0.172173" stroke-linecap="round" stroke-linejoin="round"/>
<path d="M24.4885 74.4685L25.0636 71.2558" stroke="#263238" stroke-width="0.172173" stroke-linecap="round" stroke-linejoin="round"/>
<path d="M39.2955 74.6993L38.2625 71.8292" stroke="#263238" stroke-width="0.172173" stroke-linecap="round" stroke-linejoin="round"/>
<path d="M30.1133 74.5839L31.3753 72.2888" stroke="#263238" stroke-width="0.172173" stroke-linecap="round" stroke-linejoin="round"/>
<path d="M17.1436 72.5178L18.0612 70.6808" stroke="#263238" stroke-width="0.172173" stroke-linecap="round" stroke-linejoin="round"/>
<path d="M24.4886 73.4355L23.6863 71.8292" stroke="#263238" stroke-width="0.172173" stroke-linecap="round" stroke-linejoin="round"/>
<path d="M30.6866 73.3219L30.1133 72.2888" stroke="#263238" stroke-width="0.172173" stroke-linecap="round" stroke-linejoin="round"/>
<path d="M38.8372 73.2065L39.1815 72.0581" stroke="#263238" stroke-width="0.172173" stroke-linecap="round" stroke-linejoin="round"/>
<path d="M83.4163 74.4686C83.4404 73.9297 83.3681 72.9087 82.7827 71.3695C81.8651 68.9591 80.2587 73.7799 80.2587 73.7799C80.2587 73.7799 80.2587 73.2066 78.537 71.3695C76.8152 69.5324 75.3225 72.7469 75.3225 72.7469C75.3225 72.7469 76.1265 65.0576 74.1741 65.631C72.2217 66.2043 72.4524 72.7469 72.4524 72.7469C72.4524 72.7469 71.075 67.926 69.2396 67.926C67.4043 67.926 66.9429 71.3695 66.9429 71.3695C66.9429 71.3695 66.4849 65.2866 64.6478 65.1713C62.8107 65.0559 60.7447 70.2228 60.7447 70.2228C60.7447 70.2228 61.3197 63.3359 59.4826 62.9916C57.6455 62.6472 56.9569 65.5156 56.9569 65.5156C56.9569 65.5156 55.3505 55.9893 52.2514 57.1377C49.1523 58.2861 51.7917 68.8454 51.7917 68.8454C51.7917 68.8454 48.6926 61.4988 46.1685 63.2205C43.8717 64.7856 46.7935 72.9896 47.3445 74.4686H83.4163Z" fill="#92E3A9"/>
<path d="M46.3974 74.6993C46.3974 74.6993 45.02 70.3364 45.7087 69.6477C46.3974 68.959 49.3811 71.9445 49.3811 71.9445C49.3811 71.9445 47.2014 64.5979 50.6449 63.6802C54.0883 62.7625 54.6617 70.7961 54.6617 70.7961C54.6617 70.7961 57.1874 67.1237 57.7608 68.5011C58.1071 69.3398 58.3013 70.2336 58.3341 71.1405C58.3341 71.1405 59.5979 61.1545 62.4663 61.6142C65.3346 62.0739 62.697 71.9445 62.697 71.9445C62.697 71.9445 64.3033 68.5011 66.1404 68.8454C67.9775 69.1897 68.6645 71.3694 68.6645 71.3694C68.6645 71.3694 69.4685 69.4187 70.0418 69.4187C70.6152 69.4187 71.3056 72.8622 71.3056 72.8622C71.3056 72.8622 71.9943 67.5817 73.2563 67.8124C74.5183 68.0431 77.1595 72.5178 77.1595 72.5178C77.1595 72.5178 76.6998 69.9921 78.0771 69.8784C79.4545 69.7648 80.2586 73.7799 80.2586 73.7799C80.2586 73.7799 82.0939 69.9921 83.2423 70.6808C84.3907 71.3694 83.8156 75.0436 83.8156 75.0436" stroke="#263238" stroke-width="0.172173" stroke-linecap="round" stroke-linejoin="round"/>
<path d="M52.7111 74.6993L51.5627 69.5341" stroke="#263238" stroke-width="0.172173" stroke-linecap="round" stroke-linejoin="round"/>
<path d="M59.7114 74.4685L60.2865 71.2558" stroke="#263238" stroke-width="0.172173" stroke-linecap="round" stroke-linejoin="round"/>
<path d="M74.5184 74.6993L73.4854 71.8292" stroke="#263238" stroke-width="0.172173" stroke-linecap="round" stroke-linejoin="round"/>
<path d="M65.3362 74.5839L66.5982 72.2888" stroke="#263238" stroke-width="0.172173" stroke-linecap="round" stroke-linejoin="round"/>
<path d="M52.3667 72.5178L53.2844 70.6808" stroke="#263238" stroke-width="0.172173" stroke-linecap="round" stroke-linejoin="round"/>
<path d="M59.7115 73.4355L58.9092 71.8292" stroke="#263238" stroke-width="0.172173" stroke-linecap="round" stroke-linejoin="round"/>
<path d="M65.9095 73.3219L65.3362 72.2888" stroke="#263238" stroke-width="0.172173" stroke-linecap="round" stroke-linejoin="round"/>
<path d="M74.0605 73.2065L74.4049 72.0581" stroke="#263238" stroke-width="0.172173" stroke-linecap="round" stroke-linejoin="round"/>
<path d="M45.9119 61.6572H43.999V75.0436H45.9119V61.6572Z" fill="#CCCCCC" stroke="#263238" stroke-width="0.172173" stroke-linecap="round" stroke-linejoin="round"/>
<path d="M47.551 61.6572H45.6382V75.0436H47.551V61.6572Z" fill="white" stroke="#263238" stroke-width="0.172173" stroke-linecap="round" stroke-linejoin="round"/>
<path d="M66.4004 61.6572H64.4875V75.0436H66.4004V61.6572Z" fill="#CCCCCC" stroke="#263238" stroke-width="0.172173" stroke-linecap="round" stroke-linejoin="round"/>
<path d="M68.0395 61.6572H66.1267V75.0436H68.0395V61.6572Z" fill="white" stroke="#263238" stroke-width="0.172173" stroke-linecap="round" stroke-linejoin="round"/>
<path d="M78.1477 61.6572H76.2349V75.0436H78.1477V61.6572Z" fill="#CCCCCC" stroke="#263238" stroke-width="0.172173" stroke-linecap="round" stroke-linejoin="round"/>
<path d="M79.7869 61.6572H77.874V75.0436H79.7869V61.6572Z" fill="white" stroke="#263238" stroke-width="0.172173" stroke-linecap="round" stroke-linejoin="round"/>
<path d="M75.6892 61.6572H73.7764V75.0436H75.6892V61.6572Z" fill="#CCCCCC" stroke="#263238" stroke-width="0.172173" stroke-linecap="round" stroke-linejoin="round"/>
<path d="M77.3281 61.6572H75.4153V75.0436H77.3281V61.6572Z" fill="white" stroke="#263238" stroke-width="0.172173" stroke-linecap="round" stroke-linejoin="round"/>
<path d="M84.0207 61.6572H82.1079V75.0436H84.0207V61.6572Z" fill="#CCCCCC" stroke="#263238" stroke-width="0.172173" stroke-linecap="round" stroke-linejoin="round"/>
<path d="M85.6597 61.6572H83.7468V75.0436H85.6597V61.6572Z" fill="white" stroke="#263238" stroke-width="0.172173" stroke-linecap="round" stroke-linejoin="round"/>
<path d="M67.9637 32.0865C67.8156 31.9707 67.6322 31.9092 67.4442 31.9123C67.2561 31.9155 67.0749 31.983 66.9307 32.1037L55.3796 41.7299V43.8631L67.4713 33.7859L80.3756 43.8407V41.7643L67.9637 32.0865Z" fill="#B2B2B2" stroke="#263238" stroke-width="0.172173" stroke-linecap="round" stroke-linejoin="round"/>
<path d="M79.7543 62.4182H56.0427V42.2189L67.4595 32.7339L79.7543 42.2189V62.4182Z" fill="white" stroke="#263238" stroke-width="0.172173" stroke-linecap="round" stroke-linejoin="round"/>
<path d="M68.8591 62.4182H76.6448V54.8288L68.8591 49.5018V62.4182Z" fill="#CCCCCC" stroke="#263238" stroke-width="0.172173" stroke-linecap="round" stroke-linejoin="round"/>
<path d="M67.6349 62.4182H43.9233V42.2189L55.3401 32.7339L67.6349 42.2189V62.4182Z" fill="#CCCCCC" stroke="#263238" stroke-width="0.172173" stroke-linecap="round" stroke-linejoin="round"/>
<path d="M48.72 38.1642H61.9239" stroke="#263238" stroke-width="0.172173" stroke-linecap="round" stroke-linejoin="round"/>
<path d="M43.863 42.9455H79.5286" stroke="#263238" stroke-width="0.172173" stroke-linecap="round" stroke-linejoin="round"/>
<path d="M43.863 47.725H79.6388" stroke="#263238" stroke-width="0.172173" stroke-linecap="round" stroke-linejoin="round"/>
<path d="M43.863 52.5062H68.859" stroke="#263238" stroke-width="0.172173" stroke-linecap="round" stroke-linejoin="round"/>
<path d="M43.863 57.2874H68.9434" stroke="#263238" stroke-width="0.172173" stroke-linecap="round" stroke-linejoin="round"/>
<path d="M55.4556 32.5618H67.5748L80.1572 42.2516H68.0379L55.4556 32.5618Z" fill="white" stroke="#263238" stroke-width="0.172173" stroke-linecap="round" stroke-linejoin="round"/>
<path d="M59.0813 35.0118H70.6926" stroke="#263238" stroke-width="0.172173" stroke-linecap="round" stroke-linejoin="round"/>
<path d="M62.3269 37.4773H73.859" stroke="#263238" stroke-width="0.172173" stroke-linecap="round" stroke-linejoin="round"/>
<path d="M65.5706 39.9411H77.0665" stroke="#263238" stroke-width="0.172173" stroke-linecap="round" stroke-linejoin="round"/>
<path d="M68.024 41.5784L55.8445 32.0865C55.6964 31.9707 55.513 31.9092 55.3249 31.9123C55.1369 31.9155 54.9557 31.983 54.8115 32.1037L43.3052 41.692V43.8253L55.3573 33.7859L68.024 43.6565V41.5784Z" fill="#B2B2B2" stroke="#263238" stroke-width="0.172173" stroke-linecap="round" stroke-linejoin="round"/>
<path d="M86.7408 55.7913L77.8843 50.1302V47.1792L86.7408 52.8402V55.7913Z" fill="#B2B2B2" stroke="#263238" stroke-width="0.172173" stroke-linecap="round" stroke-linejoin="round"/>
<path d="M76.2349 62.4182H86.2054V54.8288L76.2349 49.5018V62.4182Z" fill="white" stroke="#263238" stroke-width="0.172173" stroke-linecap="round" stroke-linejoin="round"/>
<path d="M77.3352 54.8357H86.6222L78.4199 49.5018H68.8591L77.3352 54.8357Z" fill="white" stroke="#263238" stroke-width="0.172173" stroke-linecap="round" stroke-linejoin="round"/>
<path d="M77.2472 55.7913L68.3923 50.1302V47.1792L77.2472 52.8402V55.7913Z" fill="#B2B2B2" stroke="#263238" stroke-width="0.172173" stroke-linecap="round" stroke-linejoin="round"/>
<path d="M59.2984 51.3544H51.239V62.4182H59.2984V51.3544Z" fill="#263238" stroke="#263238" stroke-width="0.172173" stroke-linecap="round" stroke-linejoin="round"/>
<path d="M59.2984 40.5626H51.239V51.6264H59.2984V40.5626Z" fill="#CCCCCC" stroke="#263238" stroke-width="0.172173" stroke-linecap="round" stroke-linejoin="round"/>
<path d="M59.2984 42.0949H51.239V43.6273H59.2984V42.0949Z" fill="#B2B2B2" stroke="#263238" stroke-width="0.172173" stroke-linecap="round" stroke-linejoin="round"/>
<path d="M51.2303 62.4182H59.4257L53.7062 75.0436H45.5107L51.2303 62.4182Z" fill="white" stroke="#263238" stroke-width="0.172173" stroke-linecap="round" stroke-linejoin="round"/>
<path d="M50.3987 64.2518H58.5941L58.1 65.3451H49.9045L50.3987 64.2518Z" fill="#CCCCCC" stroke="#263238" stroke-width="0.172173" stroke-linecap="round" stroke-linejoin="round"/>
<path d="M48.7285 67.9398H56.9239L56.4281 69.0331H48.2327L48.7285 67.9398Z" fill="#CCCCCC" stroke="#263238" stroke-width="0.172173" stroke-linecap="round" stroke-linejoin="round"/>
<path d="M47.0569 71.6277H55.2523L54.7582 72.721H46.5627L47.0569 71.6277Z" fill="#CCCCCC" stroke="#263238" stroke-width="0.172173" stroke-linecap="round" stroke-linejoin="round"/>
<path d="M47.9109 49.8082C47.9109 49.8082 49.7703 50.5606 51.1822 50.6932C52.594 50.8258 54.7668 49.8082 55.1215 47.9488C55.4761 46.0893 54.2795 42.5942 53.8818 41.8418C53.4841 41.0894 51.0926 35.7779 49.7652 34.6278C48.4377 33.4777 46.2684 32.8114 45.8259 32.6358C45.3834 32.4601 45.6933 34.1405 45.6055 35.2028C45.5177 36.2652 45.516 41.6645 45.516 41.6645L45.2061 48.7459C45.2061 48.7459 46.84 49.3623 47.9109 49.8082Z" fill="white"/>
<path d="M54.2037 42.6098C53.9828 42.5807 53.7601 42.5669 53.5374 42.5684C53.2567 41.8333 52.9348 41.0671 52.5939 40.3302C52.723 40.22 52.8538 40.115 52.9864 40.0117L52.8297 39.6932C52.6989 39.793 52.5698 39.8963 52.4406 40.0031C51.9869 39.0265 51.4692 38.081 50.8911 37.1726C50.9772 36.9315 51.0632 36.7094 51.1287 36.5097C51.0512 36.3806 50.9754 36.2532 50.8997 36.1309C50.8274 36.3306 50.743 36.5613 50.6518 36.8196C50.4515 36.521 50.2207 36.244 49.9631 35.9932C49.6726 35.7295 49.3642 35.4861 49.0402 35.2649C49.1435 34.8964 49.2382 34.5699 49.3243 34.2852C49.2279 34.2164 49.128 34.1492 49.0264 34.0838C48.9404 34.3644 48.8439 34.6933 48.7389 35.0634C47.8241 34.4848 46.8409 34.0221 45.812 33.6861L45.7104 34.0149C46.7407 34.3589 47.724 34.8302 48.6373 35.4181C48.503 35.9174 48.3584 36.477 48.219 37.0813C47.6243 36.7732 46.9854 36.5594 46.3251 36.4477L46.2786 36.7921C46.9289 36.8993 47.5581 37.1084 48.1432 37.4119C47.9951 38.0696 47.8557 38.7738 47.7334 39.5021C47.3057 39.1513 46.8591 38.8243 46.3956 38.5224L46.2114 38.8134C46.7186 39.1463 47.2055 39.5091 47.6697 39.8998C47.5578 40.6143 47.4666 41.346 47.408 42.0795C46.9936 41.7599 46.5556 41.4722 46.0978 41.2186L45.9359 41.5216C46.4432 41.8083 46.9258 42.1365 47.3788 42.503C47.3478 43.0092 47.3305 43.5154 47.3374 44.0113H47.6818C47.6818 43.6084 47.6818 43.1986 47.7076 42.7854C48.0019 43.0454 48.2748 43.3287 48.5237 43.6325C48.4652 43.877 48.4152 44.1094 48.3722 44.3212L48.584 44.3625C48.2396 44.8532 48.0278 45.1872 47.9951 45.2388L48.2861 45.4213L48.4187 45.2182L48.429 45.2268C48.429 45.2268 48.5048 45.1596 48.627 45.0546V45.0925C49.0127 45.1911 49.3846 45.3374 49.7341 45.5281L49.3897 45.6865C46.3096 47.0863 45.5262 47.2808 45.5193 47.2825L45.5968 47.6183C45.6278 47.6183 46.3956 47.4254 49.5309 45.9998C49.7249 45.9126 49.9074 45.8265 50.0784 45.7416C50.6547 46.1096 51.1032 46.6465 51.3628 47.2791H51.3404C51.0113 47.3266 50.6873 47.405 50.3728 47.5132C49.3742 47.9023 46.3182 48.1882 46.2872 48.1916L46.3199 48.5359C46.4473 48.5239 49.4552 48.2433 50.4985 47.8369C50.7919 47.7368 51.0939 47.6641 51.4007 47.62L51.473 47.6062C51.5477 47.8911 51.5847 48.1846 51.5832 48.4791C51.5836 48.6758 51.5738 48.8723 51.5539 49.068C51.4369 49.1007 51.3215 49.1299 51.2096 49.1523C50.4469 49.2952 48.6115 49.4622 47.3443 49.5673L47.9108 49.8083L48.0554 49.8651C49.2348 49.7618 50.6225 49.6258 51.2767 49.5036C51.3542 49.4881 51.4334 49.4708 51.5109 49.4519C51.4395 49.8862 51.287 50.3032 51.0615 50.6812L51.1872 50.6933C51.273 50.7017 51.3592 50.7057 51.4455 50.7053C51.6679 50.2802 51.8136 49.8192 51.8759 49.3434C52.7401 49.0667 53.4903 48.5153 54.0126 47.7732C54.0315 47.8335 54.0504 47.8955 54.0642 47.9574C54.2343 48.5857 54.1732 49.254 53.892 49.841C54.0856 49.6947 54.2644 49.5298 54.4258 49.3486C54.5348 48.8637 54.5277 48.3599 54.4051 47.8782C54.364 47.7072 54.3111 47.5392 54.2467 47.3755C54.3691 47.1241 54.4582 46.8579 54.5119 46.5835C54.6324 45.9499 54.2708 44.5312 53.682 42.9231C53.9053 42.9247 54.1281 42.9442 54.3483 42.9817C54.2898 42.8474 54.245 42.7251 54.2037 42.6098ZM53.1792 42.5857C52.8815 42.6103 52.5861 42.6587 52.296 42.7303C52.1049 42.3412 51.8501 41.835 51.5625 41.2909C51.8087 41.0396 52.0636 40.7951 52.3235 40.5609C52.6317 41.2324 52.9227 41.9211 53.1792 42.5857ZM51.3714 44.607C50.9325 44.3975 50.477 44.2248 50.0095 44.0904C50.2282 43.9579 50.4641 43.827 50.7137 43.7013C50.722 43.7174 50.7289 43.7341 50.7344 43.7513C50.7308 43.7313 50.7308 43.7109 50.7344 43.691L50.836 43.6411L50.8945 43.7254L50.7998 43.8683L50.9238 43.9458L51.0236 43.8477C51.0787 43.7926 51.1149 43.7564 51.0236 43.5533C51.3776 43.3906 51.743 43.2543 52.1169 43.1452C52.2237 43.3639 52.2977 43.5188 52.3287 43.586C52.3098 43.6738 52.1893 44.0336 51.3714 44.607ZM52.6145 43.8201C52.9429 44.0351 53.1936 44.35 53.3293 44.7183C53.4651 45.0866 53.4789 45.4888 53.3686 45.8656C53.3583 45.9069 53.3463 45.943 53.3342 45.9809C52.863 45.4963 52.3179 45.0895 51.7192 44.7757C52.2857 44.3625 52.5215 44.0388 52.6145 43.8201ZM50.223 42.2413C50.1559 42.1363 50.0836 42.0278 50.0061 41.909C49.8596 41.6878 49.7022 41.474 49.5343 41.2685C49.7203 40.6625 49.9183 40.0461 50.1146 39.4521C50.4589 40.0014 50.8136 40.6281 51.1356 41.2272C50.8136 41.5612 50.5088 41.9039 50.223 42.2413ZM51.3094 41.5526C51.5591 42.0261 51.7812 42.4651 51.9551 42.8181C51.5778 42.9313 51.209 43.0712 50.8515 43.2365C50.7533 43.0643 50.6139 42.8439 50.4228 42.5478C50.7 42.2189 50.9978 41.8884 51.3094 41.5543V41.5526ZM50.1903 42.8267C50.347 43.0729 50.4589 43.2554 50.5347 43.388C50.0235 43.6487 49.5326 43.9474 49.066 44.2816C49.3742 43.8632 49.7547 43.3587 50.1903 42.8284V42.8267ZM50.7533 37.5841C51.2759 38.4401 51.749 39.3253 52.1703 40.2355C51.9034 40.4714 51.6417 40.7176 51.3887 40.9724C51.0323 40.313 50.638 39.6226 50.254 39.0372C50.4279 38.5155 50.5984 38.0231 50.7533 37.5841ZM48.9438 35.6127C49.2192 35.8065 49.4826 36.0169 49.7323 36.2428C50.0302 36.5359 50.2942 36.8617 50.5192 37.2139C50.3642 37.6546 50.192 38.1471 50.0147 38.6722C49.8048 38.3568 49.5618 38.0647 49.2899 37.801C49.0571 37.5924 48.8052 37.4062 48.5375 37.2449C48.67 36.656 48.8095 36.1051 48.9438 35.6127ZM48.4566 37.603C48.6702 37.7362 48.8718 37.8877 49.0592 38.0558C49.3701 38.368 49.6445 38.7146 49.877 39.0888C49.6738 39.6966 49.4672 40.3336 49.2709 40.9655C48.8868 40.5411 48.4756 40.142 48.0399 39.7706C48.1604 39.0131 48.3033 38.2848 48.4548 37.603H48.4566ZM48.6287 43.2158C48.3545 42.9065 48.0569 42.6187 47.7386 42.355C47.7885 41.6232 47.8729 40.8915 47.9796 40.1752C48.3981 40.5398 48.7905 40.9333 49.1538 41.3529C48.9524 41.9986 48.7716 42.6339 48.6253 43.2158H48.6287ZM48.8921 43.5791L48.9128 43.5636L48.9008 43.5481C49.0402 42.9713 49.2193 42.3326 49.4173 41.6714C49.5257 41.8109 49.629 41.9538 49.7237 42.0984C49.8184 42.243 49.9148 42.3894 49.9958 42.5168C49.5171 43.097 49.1005 43.6497 48.7751 44.1042C48.8043 43.9372 48.8457 43.7599 48.8887 43.5791H48.8921ZM48.9266 44.8274C49.1229 44.6758 49.3742 44.4951 49.6652 44.3108L49.6549 44.3573C50.1274 44.4769 50.5883 44.6383 51.0323 44.8394C50.774 45.0012 50.4641 45.1751 50.0939 45.3559C49.7257 45.1345 49.3328 44.9571 48.9231 44.8274H48.9266ZM50.4159 45.578C50.8033 45.3749 51.1269 45.1855 51.3938 45.0099C52.0689 45.3397 52.6776 45.7909 53.1896 46.3407C52.8779 46.9106 52.3287 47.0966 51.7089 47.2205C51.4475 46.5576 50.9965 45.9863 50.4124 45.578H50.4159ZM51.9138 48.9612C51.9241 48.8114 51.931 48.6547 51.931 48.4877C51.9325 48.1717 51.8926 47.8568 51.8122 47.5511C52.4286 47.422 53.0432 47.2154 53.4237 46.6248C53.5959 46.8522 53.7409 47.099 53.8559 47.36C53.4156 48.1057 52.7268 48.6726 51.9103 48.9612H51.9138ZM54.1623 46.5164C54.134 46.6635 54.0937 46.808 54.0418 46.9485C53.9135 46.7116 53.7631 46.4873 53.5925 46.2788C53.6366 46.1708 53.6728 46.0597 53.7009 45.9465C53.8271 45.4692 53.7907 44.9634 53.5974 44.5091C53.404 44.0549 53.0649 43.6779 52.6335 43.4379C52.6007 43.369 52.5405 43.2382 52.4613 43.066C52.7443 43 53.0322 42.9574 53.3221 42.9386C53.9041 44.5174 54.2811 45.9155 54.1589 46.5164H54.1623Z" fill="#CCCCCC"/>
<path d="M47.9109 49.8082C47.9109 49.8082 49.7703 50.5606 51.1822 50.6932C52.594 50.8258 54.7668 49.8082 55.1215 47.9488C55.4761 46.0893 54.2795 42.5942 53.8818 41.8418C53.4841 41.0894 51.0926 35.7779 49.7652 34.6278C48.4377 33.4777 46.2684 32.8114 45.8259 32.6358C45.3834 32.4601 45.6933 34.1405 45.6055 35.2028C45.5177 36.2652 45.516 41.6645 45.516 41.6645L45.2061 48.7459C45.2061 48.7459 46.84 49.3623 47.9109 49.8082Z" stroke="#263238" stroke-width="0.172173" stroke-linecap="round" stroke-linejoin="round"/>
<path d="M50.1594 44.0956C50.1594 44.0956 52.241 42.5013 53.8336 44.6706" stroke="#263238" stroke-width="0.172173" stroke-linecap="round" stroke-linejoin="round"/>
<path d="M35.3303 20.7765C35.2408 20.9246 35.2873 18.3902 36.0052 17.1609C36.2463 16.7494 38.4501 15.9781 40.5799 16.4722C42.7096 16.9664 43.6221 18.0321 43.6979 18.5262C43.7737 19.0204 43.4345 22.1849 43.4345 22.1849C43.4345 22.1849 40.0082 20.2066 35.3303 20.7765Z" fill="#92E3A9" stroke="#263238" stroke-width="0.172173" stroke-linecap="round" stroke-linejoin="round"/>
<path d="M46.59 23.9841C46.7565 22.3647 43.6134 20.7149 39.5697 20.2992C35.526 19.8834 32.113 20.8592 31.9465 22.4785C31.78 24.0979 34.9231 25.7477 38.9668 26.1634C43.0105 26.5792 46.4235 25.6034 46.59 23.9841Z" fill="#A6A6A6" stroke="#263238" stroke-width="0.172173" stroke-linecap="round" stroke-linejoin="round"/>
<path d="M31.0948 31.787C31.0948 31.787 28.2832 32.7064 26.9626 33.7962C25.6421 34.8861 20.823 39.3626 18.6983 40.8553C16.5737 42.348 15.7714 44.8153 16.863 46.6523C17.9546 48.4894 20.0757 48.9474 21.4531 48.6031C22.8305 48.2587 24.5522 46.2495 26.1018 45.3318C27.6513 44.4141 28.8565 42.7492 28.8565 42.7492C28.8565 42.7492 29.6606 36.9521 29.9481 35.2304C30.2356 33.5087 31.3255 32.0177 31.3255 32.0177C31.3255 32.0177 31.3255 31.6148 31.0948 31.787Z" fill="white"/>
<path d="M28.309 35.0204C28.3951 34.0769 28.4812 33.3107 28.5518 32.8252C28.4278 32.8855 28.3038 32.9492 28.1816 33.0146C28.1127 33.5552 28.0232 34.3317 27.9423 35.2528C27.3873 35.6194 26.8649 36.033 26.3807 36.489C26.1224 36.737 25.8297 36.9883 25.5198 37.2397C25.4785 36.341 25.4544 35.6092 25.4406 35.1271L25.0963 35.425C25.1118 35.9415 25.1376 36.6543 25.1789 37.4911C24.4386 38.0541 23.5915 38.6205 22.7409 39.1801C22.5843 38.6773 22.4414 38.2366 22.3226 37.8716L22.0402 38.1178C22.1573 38.4759 22.2933 38.8994 22.4414 39.3781L22.2279 39.5175C21.5719 39.9462 20.94 40.3612 20.3719 40.7589C20.1847 40.5993 19.9823 40.4586 19.7675 40.3388C19.6866 40.294 19.6091 40.2562 19.5334 40.2234C19.4249 40.3078 19.3199 40.3956 19.2183 40.4662C19.3583 40.5163 19.4937 40.5785 19.6229 40.6522C19.7847 40.7455 19.9384 40.852 20.0826 40.9707C19.7124 41.2375 19.375 41.4958 19.0909 41.742C18.7427 42.0377 18.4333 42.3761 18.1698 42.7492C17.7449 42.7118 17.3168 42.7443 16.9026 42.8456C16.8303 42.9834 16.7648 43.1228 16.7063 43.264C17.1091 43.1366 17.5306 43.079 17.9528 43.0936C17.1367 44.5174 17.2641 46.1927 18.3437 48.0108C18.3589 48.0365 18.3806 48.0578 18.4065 48.0726C18.4325 48.0874 18.4618 48.0952 18.4917 48.0952C18.5227 48.0957 18.5532 48.0873 18.5795 48.0711C18.6188 48.0478 18.6472 48.0098 18.6585 47.9656C18.6698 47.9214 18.6631 47.8745 18.6398 47.8352C17.6068 46.0808 17.5069 44.4796 18.3419 43.1297C18.4808 43.1498 18.6182 43.1786 18.7534 43.2158C19.2537 43.3577 19.7215 43.5958 20.1308 43.9165C20.0826 43.9992 20.0344 44.0887 19.9931 44.1662C19.0788 45.9861 20.4132 47.1224 20.4269 47.1345C20.4443 47.149 20.4644 47.1599 20.4861 47.1666C20.5077 47.1733 20.5304 47.1757 20.553 47.1736C20.5755 47.1715 20.5974 47.165 20.6175 47.1545C20.6375 47.1439 20.6553 47.1295 20.6697 47.1121C20.6842 47.0947 20.6951 47.0746 20.7019 47.053C20.7086 47.0313 20.711 47.0086 20.7089 46.986C20.7068 46.9635 20.7003 46.9416 20.6897 46.9215C20.6792 46.9015 20.6648 46.8838 20.6473 46.8693C20.6353 46.859 19.5075 45.8983 20.303 44.3212C20.3323 44.2609 20.3684 44.2006 20.4028 44.1387C20.9521 44.6405 21.4244 45.2207 21.8043 45.8604C21.7614 46.1291 21.7862 46.4043 21.8766 46.661C21.8911 46.6896 21.9132 46.7137 21.9406 46.7304C21.968 46.7471 21.9995 46.7559 22.0316 46.7557C22.0584 46.756 22.0849 46.7502 22.1091 46.7385C22.1399 46.7223 22.1651 46.6973 22.1814 46.6665C22.1977 46.6358 22.2043 46.6008 22.2003 46.5663C22.3564 46.8659 22.5091 47.185 22.6583 47.5236C22.6717 47.5544 22.6939 47.5806 22.722 47.5989C22.7502 47.6173 22.7831 47.627 22.8167 47.6269C22.8405 47.6265 22.8639 47.6212 22.8856 47.6114C22.9269 47.5929 22.9594 47.5589 22.9758 47.5166C22.9922 47.4744 22.9914 47.4274 22.9734 47.3858C22.7349 46.833 22.4606 46.2964 22.1521 45.7795C22.2064 45.4239 22.3059 45.0767 22.4483 44.7464C22.7933 45.6477 23.0882 46.5673 23.3315 47.5012C23.4296 47.4254 23.5261 47.3462 23.6242 47.2653C23.3603 46.2674 23.0343 45.287 22.648 44.3298C22.884 43.894 23.1732 43.4892 23.5088 43.1246C23.8119 44.2816 24.0977 45.5005 24.3249 46.6868L24.628 46.4354C24.3904 45.2302 24.0959 43.9992 23.7895 42.8353C23.9341 42.6941 24.0891 42.5547 24.2561 42.4186C24.6342 42.1167 25.0322 41.8406 25.4475 41.5922C25.494 42.1432 25.5456 42.7062 25.6042 43.2709C25.1198 43.556 24.6693 43.895 24.2612 44.2816C24.2292 44.3138 24.2112 44.3574 24.2112 44.4029C24.2112 44.4484 24.2292 44.4921 24.2612 44.5243C24.2772 44.5405 24.2963 44.5533 24.3173 44.562C24.3382 44.5707 24.3607 44.5752 24.3835 44.5752C24.4062 44.5752 24.4287 44.5707 24.4497 44.562C24.4707 44.5533 24.4897 44.5405 24.5057 44.5243C24.8531 44.1936 25.2352 43.9015 25.6455 43.6531C25.7109 44.2695 25.7867 44.8876 25.8693 45.4954C25.9468 45.4437 26.026 45.3938 26.1035 45.3473L26.1878 45.2939C26.1069 44.6862 26.0346 44.0698 25.9692 43.4551C26.5727 43.1064 27.1933 42.788 27.8286 42.5013C27.8648 42.9455 27.913 43.3828 27.9733 43.8064C28.0817 43.691 28.1833 43.5791 28.2763 43.4758C28.2298 43.1091 28.1902 42.7337 28.1609 42.3515C28.4536 42.2224 28.7274 42.107 28.9633 42.0072C28.9805 41.8849 28.9994 41.7541 29.0201 41.6112C28.7687 41.711 28.4674 41.835 28.1351 41.9796C28.099 41.4063 28.08 40.8243 28.0731 40.2424C28.5191 40.0444 28.934 39.8722 29.2783 39.7259C29.2956 39.595 29.3145 39.4642 29.3334 39.3299C28.977 39.4711 28.5414 39.6484 28.0645 39.8567C28.0645 39.2627 28.0766 38.6722 28.099 38.0988C28.7119 37.7269 29.2336 37.4188 29.6485 37.176C29.6709 37.0262 29.6933 36.8799 29.7139 36.7387C29.3093 36.9746 28.7722 37.2931 28.1196 37.6856C28.1575 36.8954 28.2091 36.1361 28.2677 35.4663C28.8781 35.072 29.5104 34.7128 30.1616 34.3902C30.2115 34.2284 30.2666 34.0734 30.3251 33.9219C29.6327 34.2493 28.9596 34.6161 28.309 35.0204ZM25.1996 37.9284C25.2237 38.3984 25.2529 38.9029 25.2874 39.4315C24.5298 39.9118 23.8446 40.3681 23.2213 40.8088C23.0905 40.3595 22.963 39.9325 22.8408 39.5382C23.6603 39.0027 24.473 38.4604 25.1996 37.9284ZM22.4155 39.8223C22.4603 39.7947 22.5033 39.7655 22.5464 39.7362C22.6704 40.1391 22.7995 40.5712 22.9321 41.0275C22.4513 41.3836 21.9914 41.767 21.5547 42.1759C21.2908 41.7567 20.9819 41.3675 20.6336 41.0154C21.1776 40.6298 21.7871 40.2303 22.4155 39.8223ZM20.3099 43.6101C19.8738 43.2722 19.377 43.0209 18.8464 42.8697C18.75 42.8439 18.6553 42.8233 18.5623 42.8043C18.7836 42.5096 19.0365 42.2399 19.3164 42.0003C19.6074 41.7489 19.9586 41.4838 20.3495 41.2048C20.7153 41.5667 21.0362 41.9713 21.305 42.41C20.933 42.7748 20.5995 43.177 20.3099 43.6101ZM21.8887 45.3525C21.5232 44.7879 21.0831 44.2753 20.5802 43.8287C20.8447 43.4276 21.1493 43.0544 21.4893 42.7148C21.7851 43.2264 22.0463 43.7573 22.2709 44.3039C22.105 44.6406 21.9768 44.9945 21.8887 45.3594V45.3525ZM22.4775 43.9217C22.2608 43.4249 22.0147 42.9414 21.7406 42.4737C22.1522 42.0867 22.5851 41.7229 23.0371 41.3839C23.1593 41.8126 23.2833 42.2585 23.4055 42.7182C23.0488 43.0831 22.7373 43.4894 22.4775 43.9286V43.9217ZM24.0374 42.1294C23.9134 42.2293 23.7981 42.3308 23.6931 42.4341C23.5743 41.9951 23.4555 41.5733 23.3367 41.1549C23.9341 40.7159 24.597 40.2699 25.3201 39.8085C25.3488 40.255 25.3826 40.7141 25.4217 41.1859C24.9379 41.4689 24.4753 41.7865 24.0374 42.1363V42.1294ZM25.6438 39.5985L26.0415 39.3488C26.6648 38.962 27.2352 38.6113 27.7529 38.2968C27.7339 38.853 27.7236 39.4228 27.7271 39.9962C27.0883 40.2854 26.4013 40.6229 25.7436 40.9948C25.7006 40.523 25.673 40.0564 25.6438 39.6054V39.5985ZM25.9296 43.0557C25.871 42.4892 25.8211 41.9262 25.7746 41.3753C26.4134 41.0086 27.0935 40.6694 27.7305 40.3784C27.7305 40.9586 27.7598 41.5388 27.7994 42.1105C27.2037 42.3859 26.5442 42.7079 25.9296 43.0626V43.0557ZM27.7684 37.8905C27.2019 38.2349 26.5632 38.624 25.8607 39.0613L25.6179 39.2128C25.5835 38.6653 25.556 38.147 25.5319 37.6632C25.9101 37.3738 26.2733 37.0652 26.62 36.7387C27.0216 36.3626 27.4509 36.0172 27.9044 35.7056C27.8493 36.3788 27.8011 37.1192 27.7667 37.8922L27.7684 37.8905Z" fill="#CCCCCC"/>
<path d="M31.0948 31.787C31.0948 31.787 28.2832 32.7064 26.9626 33.7962C25.6421 34.8861 20.823 39.3626 18.6983 40.8553C16.5737 42.348 15.7714 44.8153 16.863 46.6523C17.9546 48.4894 20.0757 48.9474 21.4531 48.6031C22.8305 48.2587 24.5522 46.2495 26.1018 45.3318C27.6513 44.4141 28.8565 42.7492 28.8565 42.7492C28.8565 42.7492 29.6606 36.9521 29.9481 35.2304C30.2356 33.5087 31.3255 32.0177 31.3255 32.0177C31.3255 32.0177 31.3255 31.6148 31.0948 31.787Z" stroke="#263238" stroke-width="0.172173" stroke-linecap="round" stroke-linejoin="round"/>
<path d="M18.4127 44.9306C18.0345 44.9025 17.6564 44.9866 17.3259 45.1726C16.9954 45.3585 16.7272 45.6379 16.5549 45.9757C16.6334 46.2116 16.7367 46.4384 16.8631 46.6524C17.3638 47.4966 18.1487 48.135 19.0773 48.4533C19.9157 48.1296 20.5356 47.5287 20.5356 46.9967C20.5356 46.308 20.248 44.9875 18.4127 44.9306Z" fill="white" stroke="#263238" stroke-width="0.172173" stroke-linecap="round" stroke-linejoin="round"/>
<path d="M30.005 77.3955L27.9699 79.2894C27.3088 79.904 26.6924 80.4722 26.6924 80.8975C26.6924 81.3227 26.4565 81.8909 26.7871 82.175C27.1177 82.4591 28.6328 82.7914 30.0997 82.7914C31.2471 82.7722 32.3521 82.354 33.2246 81.6085C33.7911 81.1351 33.8393 80.5187 34.4539 80.2312C35.0686 79.9436 36.1584 79.9953 36.3478 79.2859C36.5372 78.5766 36.2531 77.4867 36.2531 77.4867L30.005 77.3955Z" fill="#878787" stroke="#263238" stroke-width="0.172173" stroke-linecap="round" stroke-linejoin="round"/>
<path d="M36.3445 79.2894C36.388 79.1084 36.4094 78.9228 36.4082 78.7367C35.6936 79.3186 34.1975 79.9247 33.736 80.3327C33.1989 80.8079 32.7237 82.0063 30.0567 82.1509C27.8185 82.2731 26.8836 81.6137 26.6357 81.3933C26.5926 81.6963 26.5719 81.9942 26.7837 82.175C27.116 82.4591 28.6294 82.7914 30.0963 82.7914C31.2438 82.7722 32.3487 82.354 33.2212 81.6085C33.7877 81.1351 33.8359 80.5187 34.4506 80.2312C35.0652 79.9436 36.1551 79.9987 36.3445 79.2894Z" fill="#263238" stroke="#263238" stroke-width="0.172173" stroke-linecap="round" stroke-linejoin="round"/>
<path d="M45.156 77.3955L47.1911 79.2894C47.8539 79.904 48.4686 80.4722 48.4686 80.8975C48.4686 81.3227 48.7045 81.8909 48.3739 82.175C48.0433 82.4591 46.5282 82.7914 45.0613 82.7914C43.9144 82.7722 42.8099 82.354 41.9381 81.6085C41.3699 81.1351 41.3234 80.5187 40.707 80.2312C40.0907 79.9436 39.0043 79.9953 38.8131 79.2859C38.622 78.5766 38.9078 77.4867 38.9078 77.4867L45.156 77.3955Z" fill="#878787" stroke="#263238" stroke-width="0.172173" stroke-linecap="round" stroke-linejoin="round"/>
<path d="M38.8132 79.2894C38.7691 79.1085 38.7471 78.9229 38.7478 78.7367C39.4641 79.3186 40.9585 79.9247 41.4199 80.3327C41.9588 80.8079 42.434 82.0063 45.0993 82.1509C47.3375 82.2731 48.2724 81.6137 48.5221 81.3933C48.5634 81.6963 48.584 81.9942 48.3723 82.175C48.0417 82.4591 46.5266 82.7914 45.0597 82.7914C43.9127 82.7722 42.8083 82.354 41.9365 81.6085C41.3683 81.1351 41.3218 80.5187 40.7054 80.2312C40.089 79.9436 39.0026 79.9987 38.8132 79.2894Z" fill="#263238" stroke="#263238" stroke-width="0.172173" stroke-linecap="round" stroke-linejoin="round"/>
<path d="M36.978 30.1806C36.978 30.1806 32.5376 31.4168 31.3324 31.7611C30.1272 32.1055 29.4884 34.6571 29.3163 37.584C29.1441 40.511 28.2832 50.8413 28.1972 51.2717C28.1111 51.7022 27.1314 55.6621 27.3897 57.0395C27.6479 58.4169 30.0911 74.9455 30.0911 74.9455C30.0911 74.9455 29.4024 75.9785 29.5745 76.2368C29.7467 76.495 29.8328 77.7863 29.8328 77.7863C29.8328 77.7863 31.985 78.5611 33.3623 78.5611C34.7397 78.5611 36.4614 78.0446 36.4614 78.0446C36.4614 78.0446 36.031 74.8594 36.2032 72.9655C36.3753 71.0716 36.3753 58.6752 36.3753 58.6752L38.0971 78.3028C38.0971 78.3028 40.1631 78.9054 41.971 78.8193C43.7788 78.7333 45.6727 77.7002 45.6727 77.7002C45.6727 77.7002 45.9309 76.2368 45.7588 75.5481C45.5866 74.8594 44.5535 73.6542 44.5535 73.2237C44.5535 72.7933 45.4144 58.4169 45.4144 58.4169C45.4144 58.4169 45.9309 54.3708 45.8448 52.3048C45.7588 50.2387 45.9309 45.4179 45.9309 45.4179C45.9309 45.4179 46.2753 41.0275 46.5335 38.531C46.7918 36.0345 46.8641 33.7962 46.778 33.2797C46.6919 32.7632 42.4875 31.0415 41.4544 30.6971C40.4214 30.3528 38.2692 30.2667 36.978 30.1806Z" fill="white"/>
<path d="M46.4645 39.2179C46.1374 39.0733 45.8017 38.939 45.4539 38.815L45.5761 36.8299C45.8619 36.959 46.3233 37.1415 46.6091 37.2879L46.5919 36.9435C46.2659 36.7725 45.9365 36.6141 45.6037 36.4683L45.7431 34.2146C46.0875 34.3764 46.4146 34.5486 46.74 34.7311L46.8089 34.6106C46.8089 34.5314 46.8089 34.4539 46.8089 34.3799C46.4645 34.187 46.1156 34.008 45.7621 33.8427L45.8447 32.591C45.738 32.5342 45.6278 32.4774 45.5107 32.4188L45.4315 33.6964C44.9528 33.4863 44.4656 33.3004 43.9715 33.1351L44.1712 31.7938L43.8458 31.6509L43.6392 33.0283C42.7558 32.7515 41.8551 32.5336 40.9429 32.3758L41.1599 30.6231C41.0549 30.5973 40.9412 30.5714 40.8155 30.549L40.5969 32.3173C39.6405 32.1651 38.6767 32.064 37.7095 32.0142L37.8817 30.2477L37.5374 30.2271L37.3652 31.997C36.4269 31.9591 35.5178 31.9643 34.6604 31.997C34.6914 31.5494 34.7189 31.1499 34.743 30.8125L34.3901 30.9106C34.3677 31.2326 34.3419 31.5993 34.3143 32.0125C33.3932 32.059 32.5358 32.1382 31.7696 32.2294C31.8075 32.0125 31.8436 31.8076 31.8781 31.6148L31.5096 31.7181C31.4786 31.8903 31.4459 32.0779 31.4132 32.2725C31.105 32.3121 30.8158 32.3534 30.5437 32.3965C30.4592 32.5134 30.3827 32.6359 30.3147 32.7632C30.6333 32.7133 30.981 32.6599 31.3478 32.6117C31.229 33.3314 31.1085 34.1612 31.0034 35.0823C30.4404 35.1684 29.9549 35.2545 29.5589 35.332C29.5382 35.4468 29.5193 35.5673 29.5021 35.6936C29.8912 35.6161 30.3836 35.5214 30.9604 35.437C30.8915 36.0259 30.8261 36.6508 30.7675 37.3085C30.2114 37.3361 29.7345 37.3671 29.3282 37.3946C29.3282 37.4566 29.3282 37.5169 29.3161 37.5771C29.3041 37.6374 29.3161 37.6856 29.3058 37.7493C29.7001 37.72 30.1822 37.689 30.7366 37.6615C30.4517 40.9985 30.4207 44.3523 30.6436 47.694L30.9879 47.6699C30.7656 44.3304 30.7984 40.9788 31.0861 37.6443C31.9177 37.6081 32.887 37.5823 33.9407 37.584C33.753 40.4713 33.5654 43.5171 33.4689 45.5556L33.8133 45.5728C33.9097 43.5308 34.0974 40.4782 34.2868 37.584C35.0874 37.584 35.9327 37.6116 36.8005 37.658L36.1359 44.2987L36.4802 44.3332L37.1448 37.6839C38.0504 37.7372 38.9767 37.8182 39.8996 37.9318L39.2746 42.961L39.6189 43.004L40.2439 37.9766C41.1186 38.0936 41.988 38.2417 42.8265 38.4294L41.9415 44.3693L42.2859 44.4193L43.1691 38.5069C43.8337 38.6653 44.4794 38.8512 45.0975 39.0595L44.6911 45.6382L45.0355 45.6606L45.4366 39.1783C45.781 39.3034 46.1139 39.4395 46.4352 39.5864C46.4421 39.4555 46.4525 39.335 46.4645 39.2179ZM40.8947 32.7046C41.8048 32.864 42.7032 33.0837 43.5841 33.3623L43.2397 35.6109C42.372 35.363 41.49 35.1681 40.5986 35.0272L40.8947 32.7046ZM33.9648 37.2397C32.9163 37.2397 31.9504 37.2638 31.1171 37.2999C31.1773 36.6285 31.2462 35.9914 31.3168 35.3905C32.1225 35.2752 33.0678 35.1684 34.1077 35.103C34.0578 35.79 34.0096 36.5079 33.9648 37.2397ZM34.137 34.7587C33.1039 34.8224 32.1708 34.9308 31.3667 35.0376C31.4821 34.1147 31.6043 33.2883 31.7231 32.5721C32.4944 32.4791 33.3639 32.3999 34.3057 32.3482C34.242 33.0628 34.1869 33.8806 34.1266 34.7587H34.137ZM46.1339 42.9214C40.2474 40.1356 32.0881 40.2785 29.1147 40.4421C29.1055 40.5569 29.0969 40.6716 29.0889 40.7864C32.0158 40.6142 40.2508 40.4593 46.103 43.2846C46.1133 43.1727 46.1236 43.0505 46.1339 42.9214ZM36.8366 37.312C35.9637 37.2655 35.1149 37.2431 34.3109 37.2362C34.3591 36.4959 34.4073 35.771 34.4538 35.0772C35.2767 35.0341 36.1531 35.0169 37.0639 35.0427L36.8366 37.312ZM37.0983 34.7001C36.1841 34.6743 35.3043 34.6915 34.4779 34.7328C34.5364 33.8565 34.5915 33.0387 34.6414 32.3224C35.5023 32.288 36.401 32.2811 37.3359 32.3224L37.0983 34.7001ZM39.9409 37.584C39.0146 37.4687 38.0849 37.3877 37.1775 37.3344L37.4082 35.0582C38.3516 35.0942 39.2924 35.1799 40.2267 35.3148L39.9409 37.584ZM37.4392 34.7156L37.6768 32.3414C38.6411 32.391 39.6021 32.4922 40.5556 32.6444L40.2663 34.9739C39.329 34.8398 38.3854 34.7542 37.4392 34.7173V34.7156ZM42.8782 38.0816C42.0328 37.8939 41.1564 37.7372 40.2835 37.6288L40.5642 35.3664C41.4531 35.5066 42.3324 35.7027 43.1967 35.9535L42.8782 38.0816ZM45.1164 38.6962C44.5052 38.4914 43.8699 38.3123 43.2225 38.1591L43.5376 36.0534C44.1178 36.2331 44.6884 36.4423 45.2473 36.6801L45.1164 38.6962ZM45.2628 36.3168C44.7107 36.0873 44.1499 35.8847 43.5806 35.7091L43.9146 33.4708C44.4197 33.6418 44.9161 33.8364 45.4039 34.0545L45.2628 36.3168Z" fill="#CCCCCC"/>
<path d="M36.978 30.1806C36.978 30.1806 32.5376 31.4168 31.3324 31.7611C30.1272 32.1055 29.4884 34.6571 29.3163 37.584C29.1441 40.511 28.2832 50.8413 28.1972 51.2717C28.1111 51.7022 27.1314 55.6621 27.3897 57.0395C27.6479 58.4169 30.0911 74.9455 30.0911 74.9455C30.0911 74.9455 29.4024 75.9785 29.5745 76.2368C29.7467 76.495 29.8328 77.7863 29.8328 77.7863C29.8328 77.7863 31.9849 78.5611 33.3623 78.5611C34.7397 78.5611 36.4614 78.0446 36.4614 78.0446C36.4614 78.0446 36.031 74.8594 36.2032 72.9655C36.3753 71.0716 36.3753 58.6752 36.3753 58.6752L38.0971 78.3028C38.0971 78.3028 40.1631 78.9054 41.971 78.8193C43.7788 78.7333 45.6727 77.7002 45.6727 77.7002C45.6727 77.7002 45.9309 76.2368 45.7588 75.5481C45.5866 74.8594 44.5535 73.6542 44.5535 73.2237C44.5535 72.7933 45.4144 58.4169 45.4144 58.4169C45.4144 58.4169 45.9309 54.3708 45.8448 52.3048C45.7588 50.2387 45.9309 45.4179 45.9309 45.4179C45.9309 45.4179 46.2753 41.0275 46.5335 38.531C46.7918 36.0345 46.8641 33.7962 46.778 33.2797C46.6919 32.7632 42.4875 31.0415 41.4544 30.6971C40.4214 30.3528 38.2692 30.2667 36.978 30.1806Z" stroke="#263238" stroke-width="0.172173" stroke-linecap="round" stroke-linejoin="round"/>
<path d="M37.3877 33.1265L36.6611 40.1098" stroke="#263238" stroke-width="0.172173" stroke-linecap="round" stroke-linejoin="round"/>
<path d="M36.3754 58.6752L38.0971 78.3028C38.0971 78.3028 40.1631 78.9054 41.971 78.8194C43.7788 78.7333 45.6727 77.7002 45.6727 77.7002C45.6727 77.7002 45.9309 76.2368 45.7588 75.5481C45.5866 74.8594 44.5535 73.6542 44.5535 73.2238C44.5535 72.7933 45.4144 58.4169 45.4144 58.4169C45.4144 58.4169 45.9309 54.3709 45.8448 52.3048C45.8345 52.0758 45.8293 51.8107 45.8259 51.5248C45.6537 50.9722 44.8617 48.4257 44.2402 45.7502C43.5377 42.7251 42.7974 39.812 42.7974 39.812L32.2949 38.9511C31.8093 38.8426 31.756 39.3832 31.756 39.3832L28.5398 47.4753C28.3676 49.5414 28.2213 51.1237 28.1954 51.2872C28.1111 51.7022 27.1314 55.6622 27.3897 57.0395C27.6479 58.4169 30.0911 74.9455 30.0911 74.9455C30.0911 74.9455 29.4024 75.9785 29.5745 76.2368C29.7467 76.495 29.8328 77.7863 29.8328 77.7863C29.8328 77.7863 31.985 78.5611 33.3623 78.5611C34.7397 78.5611 36.4614 78.0446 36.4614 78.0446C36.4614 78.0446 36.031 74.8594 36.2032 72.9655C36.3754 71.0716 36.3754 58.6752 36.3754 58.6752Z" fill="#92E3A9" stroke="#263238" stroke-width="0.172173" stroke-linecap="round" stroke-linejoin="round"/>
<path d="M33.3846 40.9965L40.5074 41.699L40.411 46.1238C40.4071 46.3112 40.362 46.4955 40.279 46.6636C40.196 46.8317 40.0771 46.9795 39.9306 47.0966L36.7936 49.6051C36.601 49.7593 36.3564 49.8332 36.1107 49.8114C35.865 49.7895 35.6372 49.6737 35.4748 49.488L32.8164 46.4389C32.6884 46.2915 32.5957 46.1169 32.5453 45.9284C32.4949 45.7398 32.4881 45.5423 32.5255 45.3507L33.3846 40.9965Z" stroke="#263238" stroke-width="0.172173" stroke-linecap="round" stroke-linejoin="round"/>
<path d="M33.9785 52.1774C33.9785 52.1774 36.0308 52.8247 38.7856 52.2841" stroke="#263238" stroke-width="0.172173" stroke-linecap="round" stroke-linejoin="round"/>
<path d="M35.7606 52.9866L35.7073 57.3615L35.8278 57.2565C36.0627 57.0507 36.2536 56.7996 36.3891 56.5182C36.5246 56.2369 36.6019 55.931 36.6163 55.6191L36.7334 53.1484" stroke="#263238" stroke-width="0.172173" stroke-linecap="round" stroke-linejoin="round"/>
<path d="M34.1938 58.0106L37.2723 58.8198" stroke="#263238" stroke-width="0.172173" stroke-linecap="round" stroke-linejoin="round"/>
<path d="M35.6349 29.4489C35.6349 29.4489 34.836 30.5904 34.7981 31.7319C34.7602 32.8734 34.304 34.3145 34.7981 34.3937C35.2922 34.4729 37.0363 32.9095 37.5752 33.0249C38.1141 33.1402 39.5897 34.9635 39.9323 34.9188C40.2749 34.874 40.9223 33.4364 40.9223 31.8007C40.9223 30.1651 40.8069 29.8225 39.8892 29.2905C38.9716 28.7584 36.8521 28.1937 35.6349 29.4489Z" fill="white" stroke="#263238" stroke-width="0.172173" stroke-linecap="round" stroke-linejoin="round"/>
<path d="M36.2427 30.1341C36.2427 30.1341 36.5095 32.5308 37.3463 32.9474C38.1831 33.3641 39.8187 30.7419 40.0081 30.6283C40.1975 30.5146 37.9248 30.8572 36.2427 30.1341Z" fill="#CCCCCC" stroke="#263238" stroke-width="0.172173" stroke-linecap="round" stroke-linejoin="round"/>
<path d="M42.8475 26.2981C42.8475 26.2981 43.5465 25.4562 43.8805 25.9538C44.2145 26.4514 43.8426 27.3983 43.4242 27.8924C43.1973 28.1789 42.871 28.3694 42.51 28.4262L42.8475 26.2981Z" fill="white" stroke="#263238" stroke-width="0.172173" stroke-linecap="round" stroke-linejoin="round"/>
<path d="M34.9874 25.4562C34.9874 25.4562 34.2282 24.542 33.9544 25.3408C33.6806 26.1397 34.6018 27.5481 34.7154 27.5481H34.829L34.9874 25.4562Z" fill="white" stroke="#263238" stroke-width="0.172173" stroke-linecap="round" stroke-linejoin="round"/>
<path d="M35.2389 22.7152C35.2389 22.7152 34.626 27.6927 35.0461 28.9134C35.4662 30.1341 37.1121 31.2877 38.6462 31.2102C40.1803 31.1327 41.5955 30.3683 42.0897 29.8328C42.5838 29.2974 43.238 23.0544 43.238 23.0544C43.238 23.0544 41.5921 22.1729 38.9871 21.906C36.3821 21.6391 35.2389 22.7152 35.2389 22.7152Z" fill="white" stroke="#263238" stroke-width="0.172173" stroke-linecap="round" stroke-linejoin="round"/>
<path d="M40.5626 25.2083C40.5629 25.2261 40.5579 25.2437 40.5482 25.2587C40.5385 25.2736 40.5246 25.2854 40.5081 25.2924C40.4917 25.2994 40.4736 25.3013 40.456 25.2979C40.4385 25.2945 40.4224 25.2859 40.4098 25.2733C40.3971 25.2607 40.3886 25.2446 40.3852 25.227C40.3818 25.2095 40.3837 25.1914 40.3907 25.1749C40.3977 25.1585 40.4094 25.1445 40.4244 25.1348C40.4394 25.1251 40.4569 25.1201 40.4748 25.1205C40.4981 25.1205 40.5204 25.1297 40.5369 25.1462C40.5533 25.1627 40.5626 25.185 40.5626 25.2083Z" fill="white" stroke="#263238" stroke-width="0.0860863" stroke-linecap="round" stroke-linejoin="round"/>
<path d="M41.618 25.0602C41.6183 25.0781 41.6133 25.0956 41.6036 25.1106C41.5939 25.1256 41.58 25.1373 41.5635 25.1443C41.5471 25.1513 41.529 25.1532 41.5114 25.1498C41.4939 25.1464 41.4778 25.1378 41.4652 25.1252C41.4526 25.1126 41.444 25.0965 41.4406 25.079C41.4372 25.0614 41.4391 25.0433 41.4461 25.0269C41.4531 25.0104 41.4648 24.9965 41.4798 24.9868C41.4948 24.9771 41.5124 24.9721 41.5302 24.9724C41.5535 24.9724 41.5758 24.9816 41.5923 24.9981C41.6088 25.0146 41.618 25.0369 41.618 25.0602Z" fill="white" stroke="#263238" stroke-width="0.0860863" stroke-linecap="round" stroke-linejoin="round"/>
<path d="M41.5096 25.6525C41.5134 25.6658 41.5141 25.6798 41.5115 25.6935C41.509 25.7071 41.5033 25.7199 41.495 25.731C41.4866 25.7421 41.4758 25.751 41.4634 25.7572C41.451 25.7634 41.4374 25.7666 41.4235 25.7666C41.4097 25.7666 41.396 25.7634 41.3836 25.7572C41.3712 25.751 41.3604 25.7421 41.352 25.731C41.3437 25.7199 41.338 25.7071 41.3355 25.6935C41.333 25.6798 41.3336 25.6658 41.3374 25.6525C41.3336 25.6392 41.333 25.6251 41.3355 25.6115C41.338 25.5979 41.3437 25.585 41.352 25.574C41.3604 25.5629 41.3712 25.5539 41.3836 25.5478C41.396 25.5416 41.4097 25.5384 41.4235 25.5384C41.4374 25.5384 41.451 25.5416 41.4634 25.5478C41.4758 25.5539 41.4866 25.5629 41.495 25.574C41.5033 25.585 41.509 25.5979 41.5115 25.6115C41.5141 25.6251 41.5134 25.6392 41.5096 25.6525Z" fill="white" stroke="#263238" stroke-width="0.0860863" stroke-linecap="round" stroke-linejoin="round"/>
<path d="M37.0899 24.7245C37.0895 24.7423 37.0945 24.7598 37.1042 24.7748C37.1139 24.7898 37.1279 24.8016 37.1443 24.8085C37.1608 24.8155 37.1789 24.8174 37.1964 24.814C37.2139 24.8106 37.2301 24.8021 37.2427 24.7895C37.2553 24.7768 37.2639 24.7607 37.2673 24.7432C37.2707 24.7257 37.2687 24.7075 37.2618 24.6911C37.2548 24.6747 37.243 24.6607 37.228 24.651C37.2131 24.6413 37.1955 24.6363 37.1777 24.6366C37.1544 24.6366 37.132 24.6459 37.1156 24.6624C37.0991 24.6788 37.0899 24.7012 37.0899 24.7245Z" fill="white" stroke="#263238" stroke-width="0.0860863" stroke-linecap="round" stroke-linejoin="round"/>
<path d="M36.031 24.5764C36.0307 24.5943 36.0357 24.6118 36.0454 24.6268C36.0551 24.6418 36.0691 24.6535 36.0855 24.6605C36.1019 24.6675 36.1201 24.6694 36.1376 24.666C36.1551 24.6626 36.1712 24.654 36.1838 24.6414C36.1965 24.6288 36.205 24.6127 36.2084 24.5952C36.2118 24.5776 36.2099 24.5595 36.2029 24.5431C36.1959 24.5266 36.1842 24.5127 36.1692 24.503C36.1542 24.4933 36.1367 24.4883 36.1188 24.4886C36.0955 24.4886 36.0732 24.4979 36.0567 24.5143C36.0403 24.5308 36.031 24.5531 36.031 24.5764Z" fill="white" stroke="#263238" stroke-width="0.0860863" stroke-linecap="round" stroke-linejoin="round"/>
<path d="M36.1428 25.1687C36.1425 25.1865 36.1475 25.2041 36.1572 25.219C36.1669 25.234 36.1809 25.2458 36.1973 25.2528C36.2137 25.2597 36.2319 25.2617 36.2494 25.2583C36.2669 25.2549 36.283 25.2463 36.2957 25.2337C36.3083 25.2211 36.3168 25.2049 36.3202 25.1874C36.3236 25.1699 36.3217 25.1518 36.3147 25.1353C36.3077 25.1189 36.296 25.1049 36.281 25.0952C36.266 25.0855 36.2485 25.0805 36.2306 25.0809C36.2074 25.0809 36.185 25.0901 36.1686 25.1066C36.1521 25.123 36.1428 25.1454 36.1428 25.1687Z" fill="white" stroke="#263238" stroke-width="0.0860863" stroke-linecap="round" stroke-linejoin="round"/>
<path d="M42.9903 22.9683C42.7573 23.3885 42.648 23.866 42.6752 24.3457C42.7357 24.8378 42.8277 25.3254 42.9507 25.8057L42.8474 26.293L43.2417 23.0544L42.9903 22.9683Z" fill="#263238" stroke="#263238" stroke-width="0.172173" stroke-linecap="round" stroke-linejoin="round"/>
<path d="M35.5695 22.574C35.6121 23.0201 35.6121 23.4692 35.5695 23.9153C35.4811 24.2737 35.32 24.6101 35.096 24.9035L34.9875 25.4562L35.2389 22.7152L35.5695 22.574Z" fill="#263238" stroke="#263238" stroke-width="0.172173" stroke-linecap="round" stroke-linejoin="round"/>
<path d="M38.2588 24.1236C38.2588 24.1236 37.7647 25.9503 37.8404 26.1397C37.9162 26.3291 38.5635 26.4841 39.0956 26.4066C39.6276 26.3291 39.4743 24.0857 39.4743 24.0857" stroke="#263238" stroke-width="0.172173" stroke-linecap="round" stroke-linejoin="round"/>
<path d="M40.4265 24.3526C40.4265 24.3526 40.9602 23.9721 41.6817 24.4662" stroke="#263238" stroke-width="0.172173" stroke-linecap="round" stroke-linejoin="round"/>
<path d="M36.396 24.0099C36.55 23.9001 36.7375 23.8476 36.9262 23.8614C37.1148 23.8752 37.2927 23.9546 37.429 24.0857" stroke="#263238" stroke-width="0.172173" stroke-linecap="round" stroke-linejoin="round"/>
<path d="M37.9936 22.605C37.9936 22.605 36.661 22.4518 36.0154 23.0234" stroke="#263238" stroke-width="0.516518" stroke-linecap="round" stroke-linejoin="round"/>
<path d="M40.1631 23.0217C40.1631 23.0217 41.4182 22.7169 42.1413 23.7104" stroke="#263238" stroke-width="0.516518" stroke-linecap="round" stroke-linejoin="round"/>
<path d="M42.4014 26.9765C42.1363 27.4706 41.451 28.0095 41.451 28.0095C41.451 28.0095 41.4889 26.6321 40.9948 26.5633C40.5006 26.4944 38.7118 26.6011 37.8371 26.2981C37.8371 26.2981 36.0878 26.0312 36.0121 26.4117C35.9363 26.7923 35.7452 27.7048 35.7452 27.7048C35.7452 27.7048 35.5937 27.7805 35.3268 27.097C35.1555 26.6265 35.0332 26.1395 34.9618 25.6439C34.8757 26.9627 34.8465 28.3521 35.0428 28.9151C35.4646 30.141 37.1088 31.2894 38.6429 31.2119C40.1769 31.1344 41.5922 30.37 42.0863 29.8345C42.3325 29.5694 42.6166 27.9062 42.8405 26.2947C42.6761 26.5098 42.5293 26.7378 42.4014 26.9765ZM40.2338 28.6879C39.9342 28.86 39.3987 28.9031 38.8237 28.8704C38.636 28.2333 38.5585 28.3074 38.0661 28.3074C37.7373 28.3074 37.7114 28.5587 37.7218 28.7275C37.3671 28.6648 37.0206 28.5626 36.6887 28.4227C35.9656 28.0784 36.5734 27.1676 36.5734 27.1676C37.677 27.586 40.3767 27.4327 40.3767 27.4327C40.3767 27.4327 40.9603 28.2695 40.2372 28.6879H40.2338Z" fill="#263238" stroke="#263238" stroke-width="0.172173" stroke-linecap="round" stroke-linejoin="round"/>
<path d="M31.7644 39.3764C31.7644 39.3764 31.9262 40.7262 32.2499 40.7813C32.5736 40.8364 32.899 39.2679 32.899 39.2679C32.899 39.2679 32.0347 39.3764 31.7644 39.3764Z" stroke="#263238" stroke-width="0.172173" stroke-linecap="round" stroke-linejoin="round"/>
<path d="M41.6627 39.719C41.6627 39.719 41.5852 41.0774 41.8951 41.1876C42.205 41.2978 42.7973 39.8102 42.7973 39.8102C42.7973 39.8102 41.9278 39.7672 41.6627 39.719Z" stroke="#263238" stroke-width="0.172173" stroke-linecap="round" stroke-linejoin="round"/>
<path d="M32.2431 31.2756C32.2431 31.2756 31.5544 38.0799 31.5544 38.8908C31.5544 39.7018 32.7424 40.1322 33.0678 38.7824C33.3932 37.4325 34.0389 31.0053 34.0389 31.0053C34.0389 31.0053 33.0059 30.8969 32.2431 31.2756Z" fill="#92E3A9" stroke="#263238" stroke-width="0.172173" stroke-linecap="round" stroke-linejoin="round"/>
<path d="M42.7819 31.1672C42.7819 31.1672 41.2152 39.4315 41.5406 39.8085C41.866 40.1856 42.5116 40.7262 43.1056 39.5933C43.6996 38.4604 44.7809 31.8145 44.7809 31.8145C44.7809 31.8145 43.6996 31.2137 42.7819 31.1672Z" fill="#92E3A9" stroke="#263238" stroke-width="0.172173" stroke-linecap="round" stroke-linejoin="round"/>
<path d="M32.6823 40.3216C32.6823 40.3897 32.6621 40.4563 32.6243 40.5129C32.5865 40.5695 32.5327 40.6137 32.4698 40.6397C32.4069 40.6658 32.3376 40.6726 32.2708 40.6593C32.204 40.646 32.1427 40.6132 32.0945 40.5651C32.0464 40.5169 32.0136 40.4556 32.0003 40.3888C31.987 40.322 31.9938 40.2527 32.0199 40.1898C32.0459 40.1269 32.0901 40.0731 32.1467 40.0353C32.2033 39.9974 32.2699 39.9772 32.338 39.9772C32.4293 39.9772 32.5169 40.0135 32.5815 40.0781C32.6461 40.1427 32.6823 40.2303 32.6823 40.3216Z" fill="white" stroke="#263238" stroke-width="0.172173" stroke-linecap="round" stroke-linejoin="round"/>
<path d="M42.3498 40.8553C42.3498 40.9234 42.3296 40.99 42.2918 41.0466C42.254 41.1033 42.2002 41.1474 42.1373 41.1735C42.0743 41.1995 42.0051 41.2063 41.9383 41.1931C41.8715 41.1798 41.8101 41.147 41.762 41.0988C41.7138 41.0507 41.681 40.9893 41.6677 40.9225C41.6545 40.8557 41.6613 40.7865 41.6873 40.7236C41.7134 40.6606 41.7575 40.6069 41.8142 40.569C41.8708 40.5312 41.9374 40.511 42.0055 40.511C42.0968 40.511 42.1844 40.5473 42.249 40.6118C42.3135 40.6764 42.3498 40.764 42.3498 40.8553Z" fill="white" stroke="#263238" stroke-width="0.172173" stroke-linecap="round" stroke-linejoin="round"/>
<path d="M49.3193 46.5749C49.3193 46.5749 50.6467 47.0173 50.3816 48.5652C50.1164 50.113 49.0972 50.1147 48.832 50.07C48.5208 49.9982 48.2133 49.9109 47.9109 49.8083C47.9109 49.8083 48.5755 48.9681 48.2656 48.0383C47.9557 47.1086 47.9918 46.4853 49.3193 46.5749Z" fill="white" stroke="#263238" stroke-width="0.172173" stroke-linecap="round" stroke-linejoin="round"/>
<path d="M42.7251 48.9646C42.8599 49.5088 43.1521 50.0011 43.5653 50.3799C44.2299 50.9567 45.4678 51.0445 45.4678 51.0445C45.2489 51.6177 44.9007 52.1326 44.4503 52.5493C43.7426 53.1691 42.9455 54.054 42.7285 54.6291C42.5116 55.2042 42.9007 55.0285 43.171 54.6739C43.4413 54.3192 43.7908 53.7441 43.7908 53.7441C43.7908 53.7441 43.4362 54.939 43.7908 54.7186C44.1455 54.4983 44.3659 53.5668 44.3659 53.5668C44.3659 53.5668 44.3659 54.7186 44.631 54.4535C44.8962 54.1883 44.8531 53.3464 44.8531 53.2138C44.8531 53.0813 45.3387 52.947 45.6055 52.6818C45.8724 52.4167 44.7636 52.6818 44.7636 52.6818C44.7636 52.6818 46.3579 51.5765 46.6231 51.177C46.8882 50.7776 46.2236 50.07 46.048 49.8496C45.8724 49.6292 42.7251 48.9646 42.7251 48.9646Z" fill="#CFCFCF" stroke="#263238" stroke-width="0.172173" stroke-linecap="round" stroke-linejoin="round"/>
<path d="M45.4678 51.0445C45.2489 51.6177 44.9007 52.1326 44.4503 52.5493C43.7426 53.1691 42.9455 54.0541 42.7285 54.6291C42.5116 55.2042 42.9007 55.0286 43.171 54.6739C43.4413 54.3192 43.7908 53.7441 43.7908 53.7441C43.7908 53.7441 43.4362 54.939 43.7908 54.7186C44.1455 54.4983 44.3659 53.5668 44.3659 53.5668C44.3659 53.5668 44.3659 54.7186 44.631 54.4535C44.8962 54.1884 44.8531 53.3464 44.8531 53.2139C44.8531 53.0813 45.3387 52.947 45.6055 52.6818C45.8724 52.4167 44.7636 52.6818 44.7636 52.6818C44.7636 52.6818 46.3579 51.5765 46.6231 51.1771C46.7333 51.0049 46.6816 50.7897 46.5714 50.5727C45.8913 50.3988 45.4678 51.0445 45.4678 51.0445Z" fill="white" stroke="#263238" stroke-width="0.172173" stroke-linecap="round" stroke-linejoin="round"/>
<path d="M42.5544 47.3565C42.6902 47.9006 42.983 48.3928 43.3964 48.7718C44.0592 49.3469 45.2989 49.4364 45.2989 49.4364C45.0792 50.0092 44.7311 50.524 44.2813 50.9412C43.5737 51.561 42.7765 52.446 42.5596 53.021C42.3427 53.5961 42.7318 53.4205 43.0021 53.0658C43.2724 52.7111 43.6219 52.136 43.6219 52.136C43.6219 52.136 43.2689 53.3309 43.6219 53.1105C43.9749 52.8902 44.197 51.9587 44.197 51.9587C44.197 51.9587 44.197 53.1105 44.4638 52.8437C44.7307 52.5768 44.6842 51.7383 44.6842 51.6058C44.6842 51.4732 45.1715 51.3389 45.4366 51.0737C45.7017 50.8086 44.5964 51.0737 44.5964 51.0737C44.5964 51.0737 46.189 49.9667 46.4559 49.569C46.7227 49.1712 46.0564 48.4619 45.8791 48.2415C45.7017 48.0211 42.5544 47.3565 42.5544 47.3565Z" fill="white" stroke="#263238" stroke-width="0.172173" stroke-linecap="round" stroke-linejoin="round"/>
<path d="M45.2989 49.4364C45.0792 50.0092 44.7311 50.524 44.2813 50.9412C43.5737 51.561 42.7765 52.446 42.5596 53.021C42.3427 53.5961 42.7318 53.4205 43.0021 53.0658C43.2724 52.7111 43.6219 52.1361 43.6219 52.1361C43.6219 52.1361 43.2689 53.3309 43.6219 53.1106C43.9749 52.8902 44.197 51.9587 44.197 51.9587C44.197 51.9587 44.197 53.1106 44.4638 52.8437C44.7307 52.5768 44.6842 51.7383 44.6842 51.6058C44.6842 51.4732 45.1715 51.3389 45.4366 51.0738C45.7017 50.8086 44.5964 51.0738 44.5964 51.0738C44.5964 51.0738 46.189 49.9667 46.4559 49.569C46.566 49.3968 46.5144 49.1816 46.4025 48.9646C45.7207 48.7907 45.2989 49.4364 45.2989 49.4364Z" fill="white" stroke="#263238" stroke-width="0.172173" stroke-linecap="round" stroke-linejoin="round"/>
<path d="M42.861 41.8883C42.861 41.8883 41.4837 40.8553 40.4506 41.9451C39.4176 43.035 39.9909 45.4471 40.6796 46.4216C41.3683 47.3961 44.6964 48.5462 46.7056 48.3741C48.7149 48.2019 50.2059 46.0205 50.2059 44.8721C50.2059 43.7237 49.2314 42.9214 48.4842 42.8645C47.737 42.8077 46.3045 42.577 46.3045 42.577C46.3045 42.577 43.4912 42.4048 42.861 41.8883Z" fill="#CFCFCF" stroke="#263238" stroke-width="0.172173" stroke-linecap="round" stroke-linejoin="round"/>
<path d="M48.083 39.9703C48.083 39.9703 48.3292 39.5106 48.0658 38.6825C47.8024 37.8543 47.2376 37.8216 47.2376 38.042V38.3864C47.2376 38.3864 46.6746 37.7837 46.5231 37.8974C46.3716 38.011 46.4852 38.6498 46.4852 38.6498C46.4852 38.6498 47.6784 38.9253 48.083 39.9703Z" fill="#263238" stroke="#263238" stroke-width="0.172173" stroke-linecap="round" stroke-linejoin="round"/>
<path d="M48.0829 39.9703C48.0829 39.9703 47.7058 38.8357 46.733 38.5654C45.7603 38.2951 44.6807 38.7376 44.302 39.1611C43.7965 39.7995 43.328 40.4664 42.8988 41.1583C42.52 41.7523 40.5762 42.6717 40.9549 42.9954C41.3337 43.3191 42.3581 42.8336 42.3581 42.8336C42.3581 42.8336 41.6557 43.9131 42.52 43.7513C43.3843 43.5894 43.4394 43.2106 43.4394 43.2106C43.4394 43.2106 43.2224 44.5622 43.8164 44.3453C44.4104 44.1283 44.3571 43.6428 44.3571 43.6428C44.3571 43.6428 44.0868 44.8859 44.6808 44.8859C45.2747 44.8859 45.3832 44.025 45.3832 44.025C45.3832 44.025 45.5451 45.1596 46.2441 44.9961C46.9431 44.8325 46.5678 44.1869 46.5678 44.1869C46.5678 44.1869 47.4286 44.9427 47.6008 44.5105C47.773 44.0784 47.2771 43.2692 47.2771 43.2692C47.2771 43.2692 46.6831 41.9727 47.222 41.4321C47.7609 40.8915 48.8973 40.5712 48.8973 40.5712L48.0829 39.9703Z" fill="#878787" stroke="#263238" stroke-width="0.172173" stroke-linecap="round" stroke-linejoin="round"/>
<path d="M47.7508 40.888C47.787 40.9207 47.8231 40.95 47.8593 40.9793C48.1904 40.81 48.5361 40.6711 48.8923 40.5643L48.0831 39.9703C48.0831 39.9703 47.1568 40.3491 47.7508 40.888Z" fill="#92E3A9" stroke="#263238" stroke-width="0.172173" stroke-linecap="round" stroke-linejoin="round"/>
<path d="M47.1171 39.7173C47.1174 39.7586 47.1055 39.7991 47.0827 39.8336C47.0599 39.8682 47.0274 39.8951 46.9893 39.9111C46.9511 39.9271 46.9091 39.9314 46.8685 39.9234C46.828 39.9154 46.7907 39.8955 46.7615 39.8663C46.7322 39.8371 46.7123 39.7998 46.7044 39.7592C46.6964 39.7186 46.7006 39.6766 46.7166 39.6385C46.7326 39.6003 46.7596 39.5678 46.7941 39.545C46.8286 39.5223 46.8691 39.5103 46.9105 39.5107C46.9653 39.5107 47.0178 39.5324 47.0566 39.5712C47.0953 39.6099 47.1171 39.6625 47.1171 39.7173Z" fill="white" stroke="#263238" stroke-width="0.172173" stroke-linecap="round" stroke-linejoin="round"/>
<path d="M49.0094 47.5477C49.0094 47.5477 47.9471 47.9902 47.3273 47.5029C46.7075 47.0157 45.7778 46.265 44.9376 46.265C44.0974 46.265 44.0078 46.9726 44.4055 47.2378C44.8033 47.5029 45.7347 48.2123 45.7347 48.2123C45.7347 48.2123 44.4951 48.2553 43.7875 47.6802C43.0798 47.1052 42.5822 46.0876 42.1053 46.1307C41.6284 46.1737 42.1484 47.1499 42.1484 47.1499C42.1484 47.1499 41.4407 46.3528 41.1756 46.6627C40.9104 46.9726 41.6628 47.9901 42.0158 48.5222C42.3687 49.0542 44.3177 49.8083 44.8498 49.9805C45.0913 50.0725 45.3446 50.1304 45.6021 50.1526C45.6021 50.1526 47.4168 49.8944 47.911 49.8083C48.4051 49.7222 48.8855 49.5879 49.0628 48.8786C49.2402 48.1692 49.142 47.6802 49.0094 47.5477Z" fill="white" stroke="#263238" stroke-width="0.172173" stroke-linecap="round" stroke-linejoin="round"/>
<path d="M42.1484 47.1499C42.1484 47.1499 42.7683 48.4774 43.7428 49.0077L42.1484 47.1499Z" fill="white"/>
<path d="M42.1484 47.1499C42.1484 47.1499 42.7683 48.4774 43.7428 49.0077" stroke="#263238" stroke-width="0.172173" stroke-linecap="round" stroke-linejoin="round"/>
<path d="M29.1441 44.4279L19.6316 43.9974L20.019 48.6031H20.0672C20.3427 49.6481 22.1195 50.5211 24.3112 50.6226C25.3047 50.6691 26.3962 50.6037 27.3432 50.2421C28.3297 49.8668 28.6844 48.9216 28.8136 47.9488C28.8669 47.558 29.0632 44.4244 29.1441 44.4279Z" fill="#878787" stroke="#263238" stroke-width="0.172173" stroke-linecap="round" stroke-linejoin="round"/>
<path d="M24.9466 46.0773C24.732 46.0773 24.5151 46.0721 24.2958 46.0618C23.1197 46.0261 21.957 45.8011 20.8524 45.3955C19.5335 44.8669 19.2804 44.2505 19.3028 43.8253C19.3252 43.4 19.6317 42.8112 20.9953 42.4049C22.1344 42.1036 23.3144 41.9873 24.4904 42.0605C25.6665 42.0962 26.8293 42.3212 27.9338 42.7268C29.2527 43.2554 29.5058 43.8718 29.4834 44.297C29.4627 44.7206 29.1545 45.3111 27.7909 45.7175C26.8643 45.9697 25.9069 46.0908 24.9466 46.0773ZM23.8258 42.7354C22.9331 42.7211 22.0429 42.8323 21.1812 43.066C20.31 43.3243 19.9898 43.6531 19.976 43.858C19.9623 44.0629 20.2549 44.4193 21.0969 44.7567C22.1323 45.1342 23.2217 45.3424 24.3234 45.3731C25.4236 45.4441 26.5282 45.3377 27.5947 45.058C28.4658 44.7998 28.7861 44.4709 28.7999 44.266C28.8102 44.0629 28.5209 43.7048 27.679 43.3673C26.6426 42.9888 25.552 42.7801 24.4491 42.7492C24.239 42.7492 24.0307 42.7354 23.8258 42.7354Z" fill="#878787" stroke="#263238" stroke-width="0.172173" stroke-linecap="round" stroke-linejoin="round"/>
<path d="M29.097 44.2704C29.1391 43.3643 27.0657 42.5318 24.4659 42.411C21.8662 42.2902 19.7245 42.9269 19.6824 43.833C19.6403 44.7392 21.7137 45.5717 24.3135 45.6925C26.9132 45.8133 29.0549 45.1766 29.097 44.2704Z" fill="white" stroke="#263238" stroke-width="0.172173" stroke-linecap="round" stroke-linejoin="round"/>
<path d="M24.9519 44.2023C24.4354 44.6534 23.6933 44.6483 23.2887 44.1886C22.8841 43.7289 22.9736 42.9834 23.4867 42.5374C23.9998 42.0915 25.3806 41.5319 25.7852 41.9916C26.1898 42.4513 25.465 43.7495 24.9519 44.2023Z" fill="white" stroke="#263238" stroke-width="0.172173" stroke-miterlimit="10"/>
<path d="M23.9791 43.3862C23.9791 44.0749 23.4832 44.6242 22.8703 44.6242C22.2573 44.6242 21.7615 44.0698 21.7615 43.3862C21.7615 42.7027 22.2591 41.2995 22.8703 41.2995C23.4815 41.2995 23.9791 42.701 23.9791 43.3862Z" fill="white" stroke="#263238" stroke-width="0.172173" stroke-miterlimit="10"/>
<path d="M27.2244 44.1111C27.2244 44.7998 26.7268 45.3507 26.1156 45.3507C25.5044 45.3507 25.0068 44.7946 25.0068 44.1111C25.0068 43.4276 25.5027 42.0244 26.1156 42.0244C26.7286 42.0244 27.2244 43.4258 27.2244 44.1111Z" fill="white" stroke="#263238" stroke-width="0.172173" stroke-miterlimit="10"/>
<path d="M25.775 45.0064C25.775 45.6951 25.2774 46.246 24.6662 46.246C24.055 46.246 23.5574 45.6899 23.5574 45.0064C23.5574 44.3229 24.0532 42.9214 24.6679 42.9214C25.2825 42.9214 25.775 44.3211 25.775 45.0064Z" fill="white" stroke="#263238" stroke-width="0.172173" stroke-miterlimit="10"/>
<path d="M22.3624 44.2385C22.3624 44.9272 21.8665 45.4781 21.2536 45.4781C20.6406 45.4781 20.1448 44.9237 20.1448 44.2385C20.1448 43.5532 20.6406 42.1518 21.2536 42.1518C21.8665 42.1518 22.3624 43.555 22.3624 44.2385Z" fill="white" stroke="#263238" stroke-width="0.172173" stroke-miterlimit="10"/>
<path d="M28.5037 44.2385C28.5037 44.9272 28.0061 45.4781 27.3949 45.4781C26.7837 45.4781 26.2861 44.9237 26.2861 44.2385C26.2861 43.5532 26.782 42.1518 27.3949 42.1518C28.0079 42.1518 28.5037 43.555 28.5037 44.2385Z" fill="white" stroke="#263238" stroke-width="0.172173" stroke-miterlimit="10"/>
<path d="M23.5022 45.652C22.9857 46.1048 22.2436 46.0979 21.839 45.6382C21.4344 45.1785 21.5222 44.433 22.037 43.9871C22.5518 43.5412 23.9309 42.9816 24.3355 43.4413C24.7401 43.901 24.0153 45.1992 23.5022 45.652Z" fill="white" stroke="#263238" stroke-width="0.172173" stroke-miterlimit="10"/>
<path d="M27.7306 44.3556C28.2058 44.848 28.2334 45.5935 27.7926 46.0171C27.3518 46.4406 26.608 46.3872 26.1346 45.8948C25.6611 45.4024 25.043 44.0474 25.4855 43.6221C25.928 43.1969 27.2503 43.8632 27.7306 44.3556Z" fill="white" stroke="#263238" stroke-width="0.172173" stroke-miterlimit="10"/>
<path d="M29.0597 44.4589C28.9735 44.4592 28.8903 44.4272 28.8265 44.3692C28.7627 44.3112 28.7231 44.2314 28.7153 44.1455L28.5242 40.7382C28.4692 40.1116 28.2599 39.5084 27.915 38.9823C27.5701 38.4563 27.1004 38.0238 26.5477 37.7235L26.174 37.5203C25.6375 37.2275 25.0385 37.0676 24.4274 37.0541C23.8163 37.0406 23.2109 37.1739 22.6619 37.4427C22.113 37.7115 21.6365 38.1081 21.2725 38.5991C20.9084 39.0902 20.6675 39.6614 20.5698 40.2648L20.012 43.7082C19.9924 43.7935 19.9411 43.8681 19.8685 43.9169C19.796 43.9657 19.7075 43.9851 19.6212 43.971C19.5348 43.957 19.4571 43.9107 19.4037 43.8414C19.3502 43.7721 19.3252 43.6851 19.3336 43.598L19.8915 40.1546C20.0066 39.4424 20.2908 38.7683 20.7203 38.1887C21.1498 37.6091 21.712 37.141 22.3598 36.8236C23.0076 36.5062 23.722 36.3488 24.4432 36.3646C25.1644 36.3803 25.8713 36.5689 26.5046 36.9143L26.8782 37.1192C27.5313 37.4744 28.0862 37.9858 28.4936 38.6076C28.901 39.2295 29.1481 39.9425 29.2129 40.6831L29.4023 44.0904C29.4104 44.1813 29.3822 44.2716 29.3237 44.3417C29.2653 44.4117 29.1815 44.4557 29.0906 44.464L29.0597 44.4589Z" fill="#878787" stroke="#263238" stroke-width="0.172173" stroke-linecap="round" stroke-linejoin="round"/>
<path d="M21.2241 50.7845C21.2241 50.7845 21.3739 50.8069 22.2348 50.9222C23.0956 51.0376 24.473 50.5503 24.6676 49.8651C24.7692 49.5207 24.0357 49.5208 23.5192 49.7515C23.0027 49.9822 21.2241 50.7845 21.2241 50.7845Z" fill="white" stroke="#263238" stroke-width="0.172173" stroke-linecap="round" stroke-linejoin="round"/>
<path d="M19.2735 46.3648C19.2735 46.3648 20.248 45.9636 21.1674 46.4802C21.791 46.8508 22.3689 47.2934 22.8891 47.799C22.8891 47.799 23.1749 48.1433 22.6016 48.4877C22.0282 48.832 21.9129 48.6031 21.4532 48.2587C21.1278 48.0386 20.7538 47.9009 20.3633 47.8575C20.3633 47.8575 21.5117 48.9474 21.9129 49.2917C22.314 49.6361 23.4624 49.0042 23.8068 49.4639C24.1511 49.9236 23.979 50.0958 23.0027 50.3816C22.0265 50.6674 21.1088 51.1856 20.3065 50.6691C19.5042 50.1526 17.6086 48.0297 17.3796 47.341C17.1506 46.6523 18.4694 45.9051 19.2735 46.3648Z" fill="white" stroke="#263238" stroke-width="0.172173" stroke-linecap="round" stroke-linejoin="round"/>
</svg>
